<svg xmlns="http://www.w3.org/2000/svg" xmlns:xlink="http://www.w3.org/1999/xlink" width="1920" zoomAndPan="magnify" viewBox="0 0 1440 809.999993" height="1080" preserveAspectRatio="xMidYMid meet" version="1.0"><defs><g/><clipPath id="5a003569d2"><path d="M 54.582031 445.085938 L 148.796875 445.085938 L 148.796875 539.296875 L 54.582031 539.296875 Z M 54.582031 445.085938 " clip-rule="nonzero"/></clipPath><clipPath id="bf7b2d03ae"><path d="M 101.6875 445.085938 C 75.671875 445.085938 54.582031 466.175781 54.582031 492.191406 C 54.582031 518.207031 75.671875 539.296875 101.6875 539.296875 C 127.707031 539.296875 148.796875 518.207031 148.796875 492.191406 C 148.796875 466.175781 127.707031 445.085938 101.6875 445.085938 Z M 101.6875 445.085938 " clip-rule="nonzero"/></clipPath><clipPath id="22e80e099a"><path d="M 54.582031 445.085938 L 148.789062 445.085938 L 148.789062 539.292969 L 54.582031 539.292969 Z M 54.582031 445.085938 " clip-rule="nonzero"/></clipPath><clipPath id="9da1a90161"><path d="M 101.6875 445.085938 C 75.671875 445.085938 54.582031 466.175781 54.582031 492.1875 C 54.582031 518.203125 75.671875 539.292969 101.6875 539.292969 C 127.703125 539.292969 148.789062 518.203125 148.789062 492.1875 C 148.789062 466.175781 127.703125 445.085938 101.6875 445.085938 Z M 101.6875 445.085938 " clip-rule="nonzero"/></clipPath><clipPath id="89a7767c6a"><path d="M 1137.492188 445.085938 L 1231.703125 445.085938 L 1231.703125 539.296875 L 1137.492188 539.296875 Z M 1137.492188 445.085938 " clip-rule="nonzero"/></clipPath><clipPath id="8e36a244a6"><path d="M 1184.597656 445.085938 C 1158.582031 445.085938 1137.492188 466.175781 1137.492188 492.191406 C 1137.492188 518.207031 1158.582031 539.296875 1184.597656 539.296875 C 1210.613281 539.296875 1231.703125 518.207031 1231.703125 492.191406 C 1231.703125 466.175781 1210.613281 445.085938 1184.597656 445.085938 Z M 1184.597656 445.085938 " clip-rule="nonzero"/></clipPath><clipPath id="6c8475612a"><path d="M 1137.492188 445.085938 L 1231.699219 445.085938 L 1231.699219 539.292969 L 1137.492188 539.292969 Z M 1137.492188 445.085938 " clip-rule="nonzero"/></clipPath><clipPath id="7e7fd917fc"><path d="M 1184.59375 445.085938 C 1158.582031 445.085938 1137.492188 466.175781 1137.492188 492.1875 C 1137.492188 518.203125 1158.582031 539.292969 1184.59375 539.292969 C 1210.609375 539.292969 1231.699219 518.203125 1231.699219 492.1875 C 1231.699219 466.175781 1210.609375 445.085938 1184.59375 445.085938 Z M 1184.59375 445.085938 " clip-rule="nonzero"/></clipPath><clipPath id="c7cb1bf4f6"><path d="M 1364.378906 476.878906 L 1395 476.878906 L 1395 507.503906 L 1364.378906 507.503906 Z M 1364.378906 476.878906 " clip-rule="nonzero"/></clipPath><clipPath id="942cf786e2"><path d="M 1379.6875 476.878906 C 1371.234375 476.878906 1364.378906 483.734375 1364.378906 492.191406 C 1364.378906 500.648438 1371.234375 507.503906 1379.6875 507.503906 C 1388.144531 507.503906 1395 500.648438 1395 492.191406 C 1395 483.734375 1388.144531 476.878906 1379.6875 476.878906 Z M 1379.6875 476.878906 " clip-rule="nonzero"/></clipPath><clipPath id="e19364407f"><path d="M 291.023438 476.878906 L 321.644531 476.878906 L 321.644531 507.503906 L 291.023438 507.503906 Z M 291.023438 476.878906 " clip-rule="nonzero"/></clipPath><clipPath id="c5f176d84d"><path d="M 306.335938 476.878906 C 297.878906 476.878906 291.023438 483.734375 291.023438 492.191406 C 291.023438 500.648438 297.878906 507.503906 306.335938 507.503906 C 314.792969 507.503906 321.644531 500.648438 321.644531 492.191406 C 321.644531 483.734375 314.792969 476.878906 306.335938 476.878906 Z M 306.335938 476.878906 " clip-rule="nonzero"/></clipPath><clipPath id="e1f4b54cc2"><path d="M 575.164062 348.128906 L 644.210938 348.128906 L 644.210938 417.179688 L 575.164062 417.179688 Z M 575.164062 348.128906 " clip-rule="nonzero"/></clipPath><clipPath id="ce9b671162"><path d="M 609.6875 348.128906 C 590.621094 348.128906 575.164062 363.585938 575.164062 382.65625 C 575.164062 401.722656 590.621094 417.179688 609.6875 417.179688 C 628.753906 417.179688 644.210938 401.722656 644.210938 382.65625 C 644.210938 363.585938 628.753906 348.128906 609.6875 348.128906 Z M 609.6875 348.128906 " clip-rule="nonzero"/></clipPath><clipPath id="58db4de40a"><path d="M 575.164062 348.128906 L 644.164062 348.128906 L 644.164062 417.128906 L 575.164062 417.128906 Z M 575.164062 348.128906 " clip-rule="nonzero"/></clipPath><clipPath id="5ea5c7ec4c"><path d="M 609.6875 348.128906 C 590.617188 348.128906 575.164062 363.585938 575.164062 382.652344 C 575.164062 401.71875 590.617188 417.175781 609.6875 417.175781 C 628.753906 417.175781 644.210938 401.71875 644.210938 382.652344 C 644.210938 363.585938 628.753906 348.128906 609.6875 348.128906 Z M 609.6875 348.128906 " clip-rule="nonzero"/></clipPath><clipPath id="03d3656091"><path d="M 758.964844 348.128906 L 828.011719 348.128906 L 828.011719 417.179688 L 758.964844 417.179688 Z M 758.964844 348.128906 " clip-rule="nonzero"/></clipPath><clipPath id="28e78c2f8a"><path d="M 793.488281 348.128906 C 774.421875 348.128906 758.964844 363.585938 758.964844 382.65625 C 758.964844 401.722656 774.421875 417.179688 793.488281 417.179688 C 812.554688 417.179688 828.011719 401.722656 828.011719 382.65625 C 828.011719 363.585938 812.554688 348.128906 793.488281 348.128906 Z M 793.488281 348.128906 " clip-rule="nonzero"/></clipPath><clipPath id="4c87f1b2df"><path d="M 758.964844 348.128906 L 827.964844 348.128906 L 827.964844 417.128906 L 758.964844 417.128906 Z M 758.964844 348.128906 " clip-rule="nonzero"/></clipPath><clipPath id="7ad394cb90"><path d="M 793.488281 348.128906 C 774.417969 348.128906 758.964844 363.585938 758.964844 382.652344 C 758.964844 401.71875 774.417969 417.175781 793.488281 417.175781 C 812.554688 417.175781 828.011719 401.71875 828.011719 382.652344 C 828.011719 363.585938 812.554688 348.128906 793.488281 348.128906 Z M 793.488281 348.128906 " clip-rule="nonzero"/></clipPath><clipPath id="4689a38e1d"><path d="M 942.761719 348.128906 L 1011.8125 348.128906 L 1011.8125 417.179688 L 942.761719 417.179688 Z M 942.761719 348.128906 " clip-rule="nonzero"/></clipPath><clipPath id="5de06001d1"><path d="M 977.289062 348.128906 C 958.21875 348.128906 942.761719 363.585938 942.761719 382.65625 C 942.761719 401.722656 958.21875 417.179688 977.289062 417.179688 C 996.355469 417.179688 1011.8125 401.722656 1011.8125 382.65625 C 1011.8125 363.585938 996.355469 348.128906 977.289062 348.128906 Z M 977.289062 348.128906 " clip-rule="nonzero"/></clipPath><clipPath id="0dff4ed88e"><path d="M 942.761719 348.128906 L 1011.761719 348.128906 L 1011.761719 417.128906 L 942.761719 417.128906 Z M 942.761719 348.128906 " clip-rule="nonzero"/></clipPath><clipPath id="dbc830bd0c"><path d="M 977.285156 348.128906 C 958.21875 348.128906 942.761719 363.585938 942.761719 382.652344 C 942.761719 401.71875 958.21875 417.175781 977.285156 417.175781 C 996.351562 417.175781 1011.808594 401.71875 1011.808594 382.652344 C 1011.808594 363.585938 996.351562 348.128906 977.285156 348.128906 Z M 977.285156 348.128906 " clip-rule="nonzero"/></clipPath></defs><rect x="-144" width="1728" fill="#ffffff" y="-80.999999" height="971.999992" fill-opacity="1"/><rect x="-144" width="1728" fill="#ffffff" y="-80.999999" height="971.999992" fill-opacity="1"/><path stroke-linecap="butt" transform="matrix(0.75, 0, 0, 0.75, 101.689396, 486.191396)" fill="none" stroke-linejoin="miter" d="M -0.00252734 8.000015 L 1703.997558 8.000015 " stroke="#d9d9d9" stroke-width="16" stroke-opacity="1" stroke-miterlimit="4"/><g clip-path="url(#5a003569d2)"><g clip-path="url(#bf7b2d03ae)"><path fill="#8bb7f0" d="M 54.582031 445.085938 L 148.796875 445.085938 L 148.796875 539.296875 L 54.582031 539.296875 Z M 54.582031 445.085938 " fill-opacity="1" fill-rule="nonzero"/></g></g><g clip-path="url(#22e80e099a)"><g clip-path="url(#9da1a90161)"><path stroke-linecap="butt" transform="matrix(0.75, 0, 0, 0.75, 54.583674, 445.085614)" fill="none" stroke-linejoin="miter" d="M 62.805105 0.000431856 C 28.117603 0.000431856 -0.00219017 28.120225 -0.00219017 62.802518 C -0.00219017 97.49002 28.117603 125.609813 62.805105 125.609813 C 97.492606 125.609813 125.607191 97.49002 125.607191 62.802518 C 125.607191 28.120225 97.492606 0.000431856 62.805105 0.000431856 Z M 62.805105 0.000431856 " stroke="#4e7ab5" stroke-width="28" stroke-opacity="1" stroke-miterlimit="4"/></g></g><g clip-path="url(#89a7767c6a)"><g clip-path="url(#8e36a244a6)"><path fill="#8bb7f0" d="M 1137.492188 445.085938 L 1231.703125 445.085938 L 1231.703125 539.296875 L 1137.492188 539.296875 Z M 1137.492188 445.085938 " fill-opacity="1" fill-rule="nonzero"/></g></g><g clip-path="url(#6c8475612a)"><g clip-path="url(#7e7fd917fc)"><path stroke-linecap="butt" transform="matrix(0.75, 0, 0, 0.75, 1137.491541, 445.085614)" fill="none" stroke-linejoin="miter" d="M 62.802948 0.000431856 C 28.120655 0.000431856 0.000862005 28.120225 0.000862005 62.802518 C 0.000862005 97.49002 28.120655 125.609813 62.802948 125.609813 C 97.49045 125.609813 125.610243 97.49002 125.610243 62.802518 C 125.610243 28.120225 97.49045 0.000431856 62.802948 0.000431856 Z M 62.802948 0.000431856 " stroke="#4e7ab5" stroke-width="28" stroke-opacity="1" stroke-miterlimit="4"/></g></g><g clip-path="url(#c7cb1bf4f6)"><g clip-path="url(#942cf786e2)"><path fill="#d9d9d9" d="M 1364.378906 476.878906 L 1395 476.878906 L 1395 507.503906 L 1364.378906 507.503906 Z M 1364.378906 476.878906 " fill-opacity="1" fill-rule="nonzero"/></g></g><g fill="#000000" fill-opacity="1"><g transform="translate(69.295844, 590.29751)"><g><path d="M 1.671875 -14.84375 L 3.59375 -14.84375 L 3.59375 -12.65625 L 3.78125 -12.65625 C 3.851562 -13.445312 4.101562 -14.054688 4.53125 -14.484375 C 4.96875 -14.910156 5.546875 -15.125 6.265625 -15.125 C 6.984375 -15.125 7.578125 -14.910156 8.046875 -14.484375 C 8.515625 -14.054688 8.835938 -13.445312 9.015625 -12.65625 L 9.15625 -12.65625 C 9.226562 -13.445312 9.476562 -14.054688 9.90625 -14.484375 C 10.34375 -14.910156 10.921875 -15.125 11.640625 -15.125 C 12.554688 -15.125 13.265625 -14.785156 13.765625 -14.109375 C 14.273438 -13.429688 14.53125 -12.5 14.53125 -11.3125 L 14.53125 0 L 12.421875 0 L 12.421875 -11.3125 C 12.421875 -11.945312 12.28125 -12.425781 12 -12.75 C 11.71875 -13.082031 11.316406 -13.25 10.796875 -13.25 C 9.703125 -13.25 9.15625 -12.554688 9.15625 -11.171875 L 9.15625 0 L 7.046875 0 L 7.046875 -11.3125 C 7.046875 -11.832031 6.921875 -12.285156 6.671875 -12.671875 C 6.429688 -13.054688 6.015625 -13.25 5.421875 -13.25 C 4.878906 -13.25 4.457031 -13.050781 4.15625 -12.65625 C 3.90625 -12.300781 3.78125 -11.804688 3.78125 -11.171875 L 3.78125 0 L 1.671875 0 Z M 1.671875 -14.84375 "/></g></g></g><g fill="#000000" fill-opacity="1"><g transform="translate(85.488763, 590.29751)"><g><path d="M 1.703125 -4.3125 C 1.703125 -5.019531 1.820312 -5.65625 2.0625 -6.21875 C 2.3125 -6.789062 2.664062 -7.273438 3.125 -7.671875 C 3.582031 -8.066406 4.132812 -8.367188 4.78125 -8.578125 C 5.425781 -8.796875 6.15625 -8.90625 6.96875 -8.90625 L 11.390625 -8.90625 L 11.390625 -10.125 C 11.390625 -11.039062 11.085938 -11.753906 10.484375 -12.265625 C 9.878906 -12.785156 9.015625 -13.046875 7.890625 -13.046875 C 7.054688 -13.046875 6.347656 -12.890625 5.765625 -12.578125 C 5.179688 -12.273438 4.789062 -11.851562 4.59375 -11.3125 L 2.15625 -11.3125 C 2.40625 -12.476562 3.046875 -13.40625 4.078125 -14.09375 C 5.117188 -14.78125 6.40625 -15.125 7.9375 -15.125 C 9.769531 -15.125 11.207031 -14.695312 12.25 -13.84375 C 13.300781 -12.988281 13.828125 -11.796875 13.828125 -10.265625 L 13.828125 0 L 11.609375 0 L 11.609375 -2.828125 L 11.390625 -2.828125 C 11.160156 -1.878906 10.613281 -1.125 9.75 -0.5625 C 8.882812 -0.0078125 7.832031 0.265625 6.59375 0.265625 C 5.09375 0.265625 3.898438 -0.144531 3.015625 -0.96875 C 2.140625 -1.800781 1.703125 -2.914062 1.703125 -4.3125 Z M 7.125 -1.734375 C 7.738281 -1.734375 8.304688 -1.8125 8.828125 -1.96875 C 9.347656 -2.132812 9.796875 -2.363281 10.171875 -2.65625 C 10.554688 -2.957031 10.851562 -3.304688 11.0625 -3.703125 C 11.28125 -4.097656 11.390625 -4.53125 11.390625 -5 L 11.390625 -7.015625 L 7.015625 -7.015625 C 6.117188 -7.015625 5.410156 -6.78125 4.890625 -6.3125 C 4.378906 -5.84375 4.125 -5.195312 4.125 -4.375 C 4.125 -3.539062 4.382812 -2.890625 4.90625 -2.421875 C 5.4375 -1.960938 6.175781 -1.734375 7.125 -1.734375 Z M 7.125 -1.734375 "/></g></g></g><g fill="#000000" fill-opacity="1"><g transform="translate(101.681683, 590.29751)"><g><path d="M 2.5625 0 L 2.5625 -2.21875 L 7.96875 -2.21875 L 7.96875 -12.640625 L 3.234375 -12.640625 L 3.234375 -14.84375 L 10.390625 -14.84375 L 10.390625 -2.21875 L 14.84375 -2.21875 L 14.84375 0 Z M 8.5 -20.65625 L 9.046875 -20.65625 C 9.566406 -20.65625 9.988281 -20.5 10.3125 -20.1875 C 10.632812 -19.882812 10.796875 -19.492188 10.796875 -19.015625 C 10.796875 -18.523438 10.632812 -18.132812 10.3125 -17.84375 C 9.988281 -17.5625 9.566406 -17.421875 9.046875 -17.421875 L 8.5 -17.421875 C 7.976562 -17.421875 7.554688 -17.554688 7.234375 -17.828125 C 6.910156 -18.109375 6.75 -18.503906 6.75 -19.015625 C 6.75 -19.492188 6.910156 -19.882812 7.234375 -20.1875 C 7.554688 -20.5 7.976562 -20.65625 8.5 -20.65625 Z M 8.5 -20.65625 "/></g></g></g><g fill="#000000" fill-opacity="1"><g transform="translate(117.874603, 590.29751)"><g><path d="M 2.375 0 L 2.375 -14.84375 L 4.671875 -14.84375 L 4.671875 -12.28125 L 4.890625 -12.28125 C 5.117188 -13.1875 5.585938 -13.882812 6.296875 -14.375 C 7.015625 -14.875 7.90625 -15.125 8.96875 -15.125 C 9.707031 -15.125 10.375 -14.992188 10.96875 -14.734375 C 11.570312 -14.484375 12.085938 -14.128906 12.515625 -13.671875 C 12.941406 -13.210938 13.269531 -12.660156 13.5 -12.015625 C 13.726562 -11.378906 13.84375 -10.664062 13.84375 -9.875 L 13.84375 0 L 11.421875 0 L 11.421875 -9.484375 C 11.421875 -10.609375 11.128906 -11.484375 10.546875 -12.109375 C 9.972656 -12.742188 9.175781 -13.0625 8.15625 -13.0625 C 7.125 -13.0625 6.304688 -12.722656 5.703125 -12.046875 C 5.109375 -11.378906 4.8125 -10.46875 4.8125 -9.3125 L 4.8125 0 Z M 2.375 0 "/></g></g></g><g clip-path="url(#e19364407f)"><g clip-path="url(#c5f176d84d)"><path fill="#a6a6a6" d="M 291.023438 476.878906 L 321.644531 476.878906 L 321.644531 507.503906 L 291.023438 507.503906 Z M 291.023438 476.878906 " fill-opacity="1" fill-rule="nonzero"/></g></g><path stroke-linecap="butt" transform="matrix(0.75, 0, 0, 0.75, 300.335557, 376.297765)" fill="none" stroke-linejoin="miter" d="M 8.000508 154.524863 L 8.000508 31.998815 C 8.000508 18.743606 18.7453 7.998814 32.000509 7.998814 L 1155.016191 7.998814 C 1161.380774 7.998814 1167.484941 10.530064 1171.984942 15.030064 C 1176.484942 19.530064 1179.016192 25.634231 1179.016192 31.998815 L 1179.016192 91.717568 " stroke="#a6a6a6" stroke-width="16" stroke-opacity="1" stroke-miterlimit="4"/><g fill="#000000" fill-opacity="1"><g transform="translate(192.971305, 349.171759)"><g><path d="M 3.03125 -14.84375 L 5.3125 -14.84375 L 5.3125 -12.28125 L 5.53125 -12.28125 C 5.769531 -13.164062 6.253906 -13.859375 6.984375 -14.359375 C 7.722656 -14.867188 8.632812 -15.125 9.71875 -15.125 C 11.28125 -15.125 12.503906 -14.628906 13.390625 -13.640625 C 14.285156 -12.660156 14.734375 -11.316406 14.734375 -9.609375 L 14.734375 -8.78125 L 12.3125 -8.78125 L 12.3125 -9.3125 C 12.3125 -10.476562 12.019531 -11.378906 11.4375 -12.015625 C 10.851562 -12.660156 10.019531 -12.984375 8.9375 -12.984375 C 7.875 -12.984375 7.023438 -12.65625 6.390625 -12 C 5.765625 -11.34375 5.453125 -10.445312 5.453125 -9.3125 L 5.453125 0 L 3.03125 0 Z M 3.03125 -14.84375 "/></g></g></g><g fill="#000000" fill-opacity="1"><g transform="translate(209.164225, 349.171759)"><g><path d="M 8.09375 0.265625 C 6.238281 0.265625 4.785156 -0.234375 3.734375 -1.234375 C 2.679688 -2.242188 2.15625 -3.632812 2.15625 -5.40625 L 2.15625 -9.453125 C 2.15625 -11.210938 2.679688 -12.597656 3.734375 -13.609375 C 4.785156 -14.617188 6.238281 -15.125 8.09375 -15.125 C 9.945312 -15.125 11.398438 -14.617188 12.453125 -13.609375 C 13.515625 -12.597656 14.046875 -11.210938 14.046875 -9.453125 L 14.046875 -6.71875 L 4.59375 -6.71875 L 4.59375 -5.53125 C 4.59375 -4.394531 4.898438 -3.503906 5.515625 -2.859375 C 6.140625 -2.210938 7 -1.890625 8.09375 -1.890625 C 8.90625 -1.890625 9.609375 -2.015625 10.203125 -2.265625 C 10.796875 -2.515625 11.238281 -2.882812 11.53125 -3.375 L 13.953125 -3.375 C 13.648438 -2.238281 12.972656 -1.347656 11.921875 -0.703125 C 10.867188 -0.0546875 9.59375 0.265625 8.09375 0.265625 Z M 11.609375 -8.75 L 11.609375 -9.453125 C 11.609375 -10.566406 11.300781 -11.425781 10.6875 -12.03125 C 10.082031 -12.644531 9.21875 -12.953125 8.09375 -12.953125 C 6.976562 -12.953125 6.113281 -12.644531 5.5 -12.03125 C 4.894531 -11.425781 4.59375 -10.566406 4.59375 -9.453125 L 4.59375 -8.75 Z M 11.609375 -8.75 "/></g></g></g><g fill="#000000" fill-opacity="1"><g transform="translate(225.357145, 349.171759)"><g><path d="M 8.421875 -19.703125 L 8.421875 -4.3125 C 8.421875 -3.65625 8.597656 -3.140625 8.953125 -2.765625 C 9.316406 -2.398438 9.816406 -2.21875 10.453125 -2.21875 L 14.84375 -2.21875 L 14.84375 0 L 10.453125 0 C 9.066406 0 7.976562 -0.378906 7.1875 -1.140625 C 6.394531 -1.910156 6 -2.96875 6 -4.3125 L 6 -17.5 L 1.078125 -17.5 L 1.078125 -19.703125 Z M 8.421875 -19.703125 "/></g></g></g><g fill="#000000" fill-opacity="1"><g transform="translate(241.550065, 349.171759)"><g><path d="M 8.09375 0.265625 C 6.238281 0.265625 4.785156 -0.234375 3.734375 -1.234375 C 2.679688 -2.242188 2.15625 -3.632812 2.15625 -5.40625 L 2.15625 -9.453125 C 2.15625 -11.210938 2.679688 -12.597656 3.734375 -13.609375 C 4.785156 -14.617188 6.238281 -15.125 8.09375 -15.125 C 9.945312 -15.125 11.398438 -14.617188 12.453125 -13.609375 C 13.515625 -12.597656 14.046875 -11.210938 14.046875 -9.453125 L 14.046875 -6.71875 L 4.59375 -6.71875 L 4.59375 -5.53125 C 4.59375 -4.394531 4.898438 -3.503906 5.515625 -2.859375 C 6.140625 -2.210938 7 -1.890625 8.09375 -1.890625 C 8.90625 -1.890625 9.609375 -2.015625 10.203125 -2.265625 C 10.796875 -2.515625 11.238281 -2.882812 11.53125 -3.375 L 13.953125 -3.375 C 13.648438 -2.238281 12.972656 -1.347656 11.921875 -0.703125 C 10.867188 -0.0546875 9.59375 0.265625 8.09375 0.265625 Z M 11.609375 -8.75 L 11.609375 -9.453125 C 11.609375 -10.566406 11.300781 -11.425781 10.6875 -12.03125 C 10.082031 -12.644531 9.21875 -12.953125 8.09375 -12.953125 C 6.976562 -12.953125 6.113281 -12.644531 5.5 -12.03125 C 4.894531 -11.425781 4.59375 -10.566406 4.59375 -9.453125 L 4.59375 -8.75 Z M 11.609375 -8.75 "/></g></g></g><g fill="#000000" fill-opacity="1"><g transform="translate(257.742985, 349.171759)"><g><path d="M 1.703125 -4.3125 C 1.703125 -5.019531 1.820312 -5.65625 2.0625 -6.21875 C 2.3125 -6.789062 2.664062 -7.273438 3.125 -7.671875 C 3.582031 -8.066406 4.132812 -8.367188 4.78125 -8.578125 C 5.425781 -8.796875 6.15625 -8.90625 6.96875 -8.90625 L 11.390625 -8.90625 L 11.390625 -10.125 C 11.390625 -11.039062 11.085938 -11.753906 10.484375 -12.265625 C 9.878906 -12.785156 9.015625 -13.046875 7.890625 -13.046875 C 7.054688 -13.046875 6.347656 -12.890625 5.765625 -12.578125 C 5.179688 -12.273438 4.789062 -11.851562 4.59375 -11.3125 L 2.15625 -11.3125 C 2.40625 -12.476562 3.046875 -13.40625 4.078125 -14.09375 C 5.117188 -14.78125 6.40625 -15.125 7.9375 -15.125 C 9.769531 -15.125 11.207031 -14.695312 12.25 -13.84375 C 13.300781 -12.988281 13.828125 -11.796875 13.828125 -10.265625 L 13.828125 0 L 11.609375 0 L 11.609375 -2.828125 L 11.390625 -2.828125 C 11.160156 -1.878906 10.613281 -1.125 9.75 -0.5625 C 8.882812 -0.0078125 7.832031 0.265625 6.59375 0.265625 C 5.09375 0.265625 3.898438 -0.144531 3.015625 -0.96875 C 2.140625 -1.800781 1.703125 -2.914062 1.703125 -4.3125 Z M 7.125 -1.734375 C 7.738281 -1.734375 8.304688 -1.8125 8.828125 -1.96875 C 9.347656 -2.132812 9.796875 -2.363281 10.171875 -2.65625 C 10.554688 -2.957031 10.851562 -3.304688 11.0625 -3.703125 C 11.28125 -4.097656 11.390625 -4.53125 11.390625 -5 L 11.390625 -7.015625 L 7.015625 -7.015625 C 6.117188 -7.015625 5.410156 -6.78125 4.890625 -6.3125 C 4.378906 -5.84375 4.125 -5.195312 4.125 -4.375 C 4.125 -3.539062 4.382812 -2.890625 4.90625 -2.421875 C 5.4375 -1.960938 6.175781 -1.734375 7.125 -1.734375 Z M 7.125 -1.734375 "/></g></g></g><g fill="#000000" fill-opacity="1"><g transform="translate(273.935905, 349.171759)"><g><path d="M 7.6875 0.265625 C 6.125 0.265625 4.832031 -0.0859375 3.8125 -0.796875 C 2.800781 -1.503906 2.222656 -2.453125 2.078125 -3.640625 L 4.640625 -3.640625 C 4.753906 -3.117188 5.085938 -2.695312 5.640625 -2.375 C 6.203125 -2.050781 6.882812 -1.890625 7.6875 -1.890625 L 8.453125 -1.890625 C 9.421875 -1.890625 10.175781 -2.09375 10.71875 -2.5 C 11.257812 -2.90625 11.53125 -3.445312 11.53125 -4.125 C 11.53125 -5.300781 10.703125 -6.015625 9.046875 -6.265625 L 6.796875 -6.59375 C 5.335938 -6.800781 4.25 -7.253906 3.53125 -7.953125 C 2.8125 -8.660156 2.453125 -9.644531 2.453125 -10.90625 C 2.453125 -12.238281 2.925781 -13.273438 3.875 -14.015625 C 4.820312 -14.753906 6.140625 -15.125 7.828125 -15.125 L 8.59375 -15.125 C 9.3125 -15.125 9.972656 -15.03125 10.578125 -14.84375 C 11.191406 -14.664062 11.734375 -14.410156 12.203125 -14.078125 C 12.671875 -13.742188 13.050781 -13.347656 13.34375 -12.890625 C 13.644531 -12.429688 13.84375 -11.921875 13.9375 -11.359375 L 11.359375 -11.359375 C 11.253906 -11.828125 10.945312 -12.207031 10.4375 -12.5 C 9.9375 -12.800781 9.320312 -12.953125 8.59375 -12.953125 L 7.828125 -12.953125 C 6.910156 -12.953125 6.191406 -12.769531 5.671875 -12.40625 C 5.160156 -12.050781 4.90625 -11.515625 4.90625 -10.796875 C 4.90625 -10.222656 5.082031 -9.785156 5.4375 -9.484375 C 5.789062 -9.191406 6.363281 -8.992188 7.15625 -8.890625 L 9.390625 -8.5625 C 10.992188 -8.320312 12.160156 -7.851562 12.890625 -7.15625 C 13.617188 -6.457031 13.984375 -5.457031 13.984375 -4.15625 C 13.984375 -2.769531 13.5 -1.6875 12.53125 -0.90625 C 11.570312 -0.125 10.210938 0.265625 8.453125 0.265625 Z M 7.6875 0.265625 "/></g></g></g><g fill="#000000" fill-opacity="1"><g transform="translate(290.128824, 349.171759)"><g><path d="M 8.09375 0.265625 C 6.238281 0.265625 4.785156 -0.234375 3.734375 -1.234375 C 2.679688 -2.242188 2.15625 -3.632812 2.15625 -5.40625 L 2.15625 -9.453125 C 2.15625 -11.210938 2.679688 -12.597656 3.734375 -13.609375 C 4.785156 -14.617188 6.238281 -15.125 8.09375 -15.125 C 9.945312 -15.125 11.398438 -14.617188 12.453125 -13.609375 C 13.515625 -12.597656 14.046875 -11.210938 14.046875 -9.453125 L 14.046875 -6.71875 L 4.59375 -6.71875 L 4.59375 -5.53125 C 4.59375 -4.394531 4.898438 -3.503906 5.515625 -2.859375 C 6.140625 -2.210938 7 -1.890625 8.09375 -1.890625 C 8.90625 -1.890625 9.609375 -2.015625 10.203125 -2.265625 C 10.796875 -2.515625 11.238281 -2.882812 11.53125 -3.375 L 13.953125 -3.375 C 13.648438 -2.238281 12.972656 -1.347656 11.921875 -0.703125 C 10.867188 -0.0546875 9.59375 0.265625 8.09375 0.265625 Z M 11.609375 -8.75 L 11.609375 -9.453125 C 11.609375 -10.566406 11.300781 -11.425781 10.6875 -12.03125 C 10.082031 -12.644531 9.21875 -12.953125 8.09375 -12.953125 C 6.976562 -12.953125 6.113281 -12.644531 5.5 -12.03125 C 4.894531 -11.425781 4.59375 -10.566406 4.59375 -9.453125 L 4.59375 -8.75 Z M 11.609375 -8.75 "/></g></g></g><g fill="#000000" fill-opacity="1"><g transform="translate(306.321744, 349.171759)"><g><path d="M 11.609375 -22.40625 L 14.171875 -22.40625 L 4.59375 2.96875 L 2.03125 2.96875 Z M 11.609375 -22.40625 "/></g></g></g><g fill="#000000" fill-opacity="1"><g transform="translate(322.514664, 349.171759)"><g><path d="M 1.34375 -14.84375 L 3.921875 -14.84375 L 7.53125 -4.34375 C 7.675781 -3.925781 7.785156 -3.5625 7.859375 -3.25 C 7.929688 -2.9375 7.984375 -2.671875 8.015625 -2.453125 C 8.054688 -2.179688 8.078125 -1.945312 8.078125 -1.75 L 8.3125 -1.75 C 8.289062 -1.945312 8.300781 -2.179688 8.34375 -2.453125 C 8.375 -2.671875 8.414062 -2.9375 8.46875 -3.25 C 8.53125 -3.5625 8.632812 -3.925781 8.78125 -4.34375 L 12.203125 -14.84375 L 14.84375 -14.84375 L 9.53125 0 L 6.78125 0 Z M 1.34375 -14.84375 "/></g></g></g><g fill="#000000" fill-opacity="1"><g transform="translate(338.707584, 349.171759)"><g><path d="M 2.4375 -2.15625 L 7.640625 -2.15625 L 7.640625 -15.796875 C 7.640625 -15.941406 7.644531 -16.109375 7.65625 -16.296875 C 7.664062 -16.484375 7.671875 -16.65625 7.671875 -16.8125 C 7.671875 -16.976562 7.671875 -17.117188 7.671875 -17.234375 C 7.679688 -17.359375 7.6875 -17.421875 7.6875 -17.421875 L 7.640625 -17.421875 C 7.515625 -17.304688 7.390625 -17.207031 7.265625 -17.125 C 7.148438 -17.03125 7.035156 -16.9375 6.921875 -16.84375 C 6.804688 -16.757812 6.695312 -16.679688 6.59375 -16.609375 L 2.78125 -14.015625 L 2.78125 -16.46875 L 6.96875 -19.4375 L 10.078125 -19.4375 L 10.078125 -2.15625 L 14.4375 -2.15625 L 14.4375 0 L 2.4375 0 Z M 2.4375 -2.15625 "/></g></g></g><g fill="#000000" fill-opacity="1"><g transform="translate(354.900504, 349.171759)"><g><path d="M 5.78125 -2.140625 C 5.78125 -2.835938 5.988281 -3.394531 6.40625 -3.8125 C 6.832031 -4.238281 7.394531 -4.453125 8.09375 -4.453125 C 8.800781 -4.453125 9.363281 -4.238281 9.78125 -3.8125 C 10.207031 -3.394531 10.421875 -2.835938 10.421875 -2.140625 C 10.421875 -1.410156 10.207031 -0.828125 9.78125 -0.390625 C 9.363281 0.046875 8.800781 0.265625 8.09375 0.265625 C 7.394531 0.265625 6.832031 0.046875 6.40625 -0.390625 C 5.988281 -0.828125 5.78125 -1.410156 5.78125 -2.140625 Z M 5.78125 -2.140625 "/></g></g></g><g fill="#000000" fill-opacity="1"><g transform="translate(371.093424, 349.171759)"><g><path d="M 6.75 -10.9375 C 6.75 -11.382812 6.867188 -11.742188 7.109375 -12.015625 C 7.359375 -12.285156 7.6875 -12.421875 8.09375 -12.421875 C 8.507812 -12.421875 8.835938 -12.285156 9.078125 -12.015625 C 9.328125 -11.742188 9.453125 -11.382812 9.453125 -10.9375 L 9.453125 -8.234375 C 9.453125 -7.785156 9.328125 -7.425781 9.078125 -7.15625 C 8.835938 -6.882812 8.507812 -6.75 8.09375 -6.75 C 7.6875 -6.75 7.359375 -6.882812 7.109375 -7.15625 C 6.867188 -7.425781 6.75 -7.785156 6.75 -8.234375 Z M 4.59375 -5.53125 C 4.59375 -4.414062 4.90625 -3.53125 5.53125 -2.875 C 6.164062 -2.21875 7.019531 -1.890625 8.09375 -1.890625 C 9.175781 -1.890625 10.03125 -2.21875 10.65625 -2.875 C 11.289062 -3.53125 11.609375 -4.414062 11.609375 -5.53125 L 11.609375 -13.90625 C 11.609375 -15.019531 11.289062 -15.90625 10.65625 -16.5625 C 10.03125 -17.21875 9.175781 -17.546875 8.09375 -17.546875 C 7.019531 -17.546875 6.164062 -17.21875 5.53125 -16.5625 C 4.90625 -15.90625 4.59375 -15.019531 4.59375 -13.90625 Z M 2.15625 -5.53125 L 2.15625 -13.90625 C 2.15625 -14.789062 2.296875 -15.59375 2.578125 -16.3125 C 2.859375 -17.03125 3.253906 -17.640625 3.765625 -18.140625 C 4.273438 -18.648438 4.894531 -19.035156 5.625 -19.296875 C 6.351562 -19.566406 7.175781 -19.703125 8.09375 -19.703125 C 9.019531 -19.703125 9.84375 -19.566406 10.5625 -19.296875 C 11.289062 -19.035156 11.910156 -18.648438 12.421875 -18.140625 C 12.941406 -17.640625 13.34375 -17.03125 13.625 -16.3125 C 13.90625 -15.59375 14.046875 -14.789062 14.046875 -13.90625 L 14.046875 -5.53125 C 14.046875 -4.65625 13.90625 -3.859375 13.625 -3.140625 C 13.34375 -2.429688 12.941406 -1.820312 12.421875 -1.3125 C 11.910156 -0.8125 11.285156 -0.421875 10.546875 -0.140625 C 9.816406 0.128906 9 0.265625 8.09375 0.265625 C 7.175781 0.265625 6.351562 0.128906 5.625 -0.140625 C 4.894531 -0.410156 4.273438 -0.796875 3.765625 -1.296875 C 3.253906 -1.796875 2.859375 -2.40625 2.578125 -3.125 C 2.296875 -3.851562 2.15625 -4.65625 2.15625 -5.53125 Z M 2.15625 -5.53125 "/></g></g></g><g fill="#000000" fill-opacity="1"><g transform="translate(387.286344, 349.171759)"><g><path d="M 5.78125 -2.140625 C 5.78125 -2.835938 5.988281 -3.394531 6.40625 -3.8125 C 6.832031 -4.238281 7.394531 -4.453125 8.09375 -4.453125 C 8.800781 -4.453125 9.363281 -4.238281 9.78125 -3.8125 C 10.207031 -3.394531 10.421875 -2.835938 10.421875 -2.140625 C 10.421875 -1.410156 10.207031 -0.828125 9.78125 -0.390625 C 9.363281 0.046875 8.800781 0.265625 8.09375 0.265625 C 7.394531 0.265625 6.832031 0.046875 6.40625 -0.390625 C 5.988281 -0.828125 5.78125 -1.410156 5.78125 -2.140625 Z M 5.78125 -2.140625 "/></g></g></g><g fill="#000000" fill-opacity="1"><g transform="translate(403.479275, 349.171759)"><g><path d="M 6.75 -10.9375 C 6.75 -11.382812 6.867188 -11.742188 7.109375 -12.015625 C 7.359375 -12.285156 7.6875 -12.421875 8.09375 -12.421875 C 8.507812 -12.421875 8.835938 -12.285156 9.078125 -12.015625 C 9.328125 -11.742188 9.453125 -11.382812 9.453125 -10.9375 L 9.453125 -8.234375 C 9.453125 -7.785156 9.328125 -7.425781 9.078125 -7.15625 C 8.835938 -6.882812 8.507812 -6.75 8.09375 -6.75 C 7.6875 -6.75 7.359375 -6.882812 7.109375 -7.15625 C 6.867188 -7.425781 6.75 -7.785156 6.75 -8.234375 Z M 4.59375 -5.53125 C 4.59375 -4.414062 4.90625 -3.53125 5.53125 -2.875 C 6.164062 -2.21875 7.019531 -1.890625 8.09375 -1.890625 C 9.175781 -1.890625 10.03125 -2.21875 10.65625 -2.875 C 11.289062 -3.53125 11.609375 -4.414062 11.609375 -5.53125 L 11.609375 -13.90625 C 11.609375 -15.019531 11.289062 -15.90625 10.65625 -16.5625 C 10.03125 -17.21875 9.175781 -17.546875 8.09375 -17.546875 C 7.019531 -17.546875 6.164062 -17.21875 5.53125 -16.5625 C 4.90625 -15.90625 4.59375 -15.019531 4.59375 -13.90625 Z M 2.15625 -5.53125 L 2.15625 -13.90625 C 2.15625 -14.789062 2.296875 -15.59375 2.578125 -16.3125 C 2.859375 -17.03125 3.253906 -17.640625 3.765625 -18.140625 C 4.273438 -18.648438 4.894531 -19.035156 5.625 -19.296875 C 6.351562 -19.566406 7.175781 -19.703125 8.09375 -19.703125 C 9.019531 -19.703125 9.84375 -19.566406 10.5625 -19.296875 C 11.289062 -19.035156 11.910156 -18.648438 12.421875 -18.140625 C 12.941406 -17.640625 13.34375 -17.03125 13.625 -16.3125 C 13.90625 -15.59375 14.046875 -14.789062 14.046875 -13.90625 L 14.046875 -5.53125 C 14.046875 -4.65625 13.90625 -3.859375 13.625 -3.140625 C 13.34375 -2.429688 12.941406 -1.820312 12.421875 -1.3125 C 11.910156 -0.8125 11.285156 -0.421875 10.546875 -0.140625 C 9.816406 0.128906 9 0.265625 8.09375 0.265625 C 7.175781 0.265625 6.351562 0.128906 5.625 -0.140625 C 4.894531 -0.410156 4.273438 -0.796875 3.765625 -1.296875 C 3.253906 -1.796875 2.859375 -2.40625 2.578125 -3.125 C 2.296875 -3.851562 2.15625 -4.65625 2.15625 -5.53125 Z M 2.15625 -5.53125 "/></g></g></g><g clip-path="url(#e1f4b54cc2)"><g clip-path="url(#ce9b671162)"><path fill="#cb6ce6" d="M 575.164062 348.128906 L 644.210938 348.128906 L 644.210938 417.179688 L 575.164062 417.179688 Z M 575.164062 348.128906 " fill-opacity="1" fill-rule="nonzero"/></g></g><g clip-path="url(#58db4de40a)"><g clip-path="url(#5ea5c7ec4c)"><path stroke-linecap="butt" transform="matrix(0.75, 0, 0, 0.75, 575.162377, 348.129905)" fill="none" stroke-linejoin="miter" d="M 46.033499 -0.00133151 C 20.606415 -0.00133151 0.00224695 20.608045 0.00224695 46.029921 C 0.00224695 71.451797 20.606415 92.061173 46.033499 92.061173 C 71.455376 92.061173 92.064752 71.451797 92.064752 46.029921 C 92.064752 20.608045 71.455376 -0.00133151 46.033499 -0.00133151 Z M 46.033499 -0.00133151 " stroke="#8c52ff" stroke-width="28" stroke-opacity="1" stroke-miterlimit="4"/></g></g><g clip-path="url(#03d3656091)"><g clip-path="url(#28e78c2f8a)"><path fill="#cb6ce6" d="M 758.964844 348.128906 L 828.011719 348.128906 L 828.011719 417.179688 L 758.964844 417.179688 Z M 758.964844 348.128906 " fill-opacity="1" fill-rule="nonzero"/></g></g><g clip-path="url(#4c87f1b2df)"><g clip-path="url(#7ad394cb90)"><path stroke-linecap="butt" transform="matrix(0.75, 0, 0, 0.75, 758.962936, 348.129905)" fill="none" stroke-linejoin="miter" d="M 46.033796 -0.00133151 C 20.606711 -0.00133151 0.00254361 20.608045 0.00254361 46.029921 C 0.00254361 71.451797 20.606711 92.061173 46.033796 92.061173 C 71.455672 92.061173 92.065048 71.451797 92.065048 46.029921 C 92.065048 20.608045 71.455672 -0.00133151 46.033796 -0.00133151 Z M 46.033796 -0.00133151 " stroke="#8c52ff" stroke-width="28" stroke-opacity="1" stroke-miterlimit="4"/></g></g><g clip-path="url(#4689a38e1d)"><g clip-path="url(#5de06001d1)"><path fill="#cb6ce6" d="M 942.761719 348.128906 L 1011.8125 348.128906 L 1011.8125 417.179688 L 942.761719 417.179688 Z M 942.761719 348.128906 " fill-opacity="1" fill-rule="nonzero"/></g></g><g clip-path="url(#0dff4ed88e)"><g clip-path="url(#dbc830bd0c)"><path stroke-linecap="butt" transform="matrix(0.75, 0, 0, 0.75, 942.762679, 348.129905)" fill="none" stroke-linejoin="miter" d="M 46.029972 -0.00133151 C 20.608096 -0.00133151 -0.00128006 20.608045 -0.00128006 46.029921 C -0.00128006 71.451797 20.608096 92.061173 46.029972 92.061173 C 71.451849 92.061173 92.061225 71.451797 92.061225 46.029921 C 92.061225 20.608045 71.451849 -0.00133151 46.029972 -0.00133151 Z M 46.029972 -0.00133151 " stroke="#8c52ff" stroke-width="28" stroke-opacity="1" stroke-miterlimit="4"/></g></g><g fill="#000000" fill-opacity="1"><g transform="translate(614.395357, 334.95837)"><g><path d="M 6.0625 -5.6875 C 5.414062 -5.039062 4.738281 -4.554688 4.03125 -4.234375 C 3.320312 -3.910156 2.609375 -3.742188 1.890625 -3.734375 C 1.179688 -3.734375 0.472656 -3.882812 -0.234375 -4.1875 C -0.953125 -4.5 -1.617188 -4.960938 -2.234375 -5.578125 L -4.90625 -8.25 C -5.539062 -8.882812 -6.007812 -9.554688 -6.3125 -10.265625 C -6.613281 -10.972656 -6.765625 -11.6875 -6.765625 -12.40625 C -6.765625 -13.125 -6.597656 -13.832031 -6.265625 -14.53125 C -5.941406 -15.238281 -5.457031 -15.914062 -4.8125 -16.5625 C -3.65625 -17.71875 -2.390625 -18.359375 -1.015625 -18.484375 C 0.359375 -18.609375 1.671875 -18.191406 2.921875 -17.234375 L 1.203125 -15.515625 C 0.503906 -16.046875 -0.25 -16.265625 -1.0625 -16.171875 C -1.875 -16.078125 -2.613281 -15.695312 -3.28125 -15.03125 C -4.039062 -14.269531 -4.414062 -13.441406 -4.40625 -12.546875 C -4.394531 -11.648438 -3.984375 -10.796875 -3.171875 -9.984375 L -0.5 -7.3125 C 0.300781 -6.507812 1.144531 -6.097656 2.03125 -6.078125 C 2.925781 -6.066406 3.757812 -6.445312 4.53125 -7.21875 C 5.195312 -7.882812 5.578125 -8.625 5.671875 -9.4375 C 5.765625 -10.25 5.546875 -11.003906 5.015625 -11.703125 L 6.734375 -13.421875 C 7.679688 -12.140625 8.09375 -10.816406 7.96875 -9.453125 C 7.84375 -8.085938 7.207031 -6.832031 6.0625 -5.6875 Z M 6.0625 -5.6875 "/></g></g></g><g fill="#000000" fill-opacity="1"><g transform="translate(625.845481, 323.508247)"><g><path d="M -12.265625 -15.609375 L -10.53125 -17.34375 L -7.09375 -13.90625 C -6.914062 -13.726562 -6.722656 -13.523438 -6.515625 -13.296875 C -6.316406 -13.078125 -6.132812 -12.875 -5.96875 -12.6875 C -5.78125 -12.457031 -5.585938 -12.222656 -5.390625 -11.984375 L -5.234375 -12.140625 C -5.703125 -12.941406 -5.859375 -13.769531 -5.703125 -14.625 C -5.546875 -15.476562 -5.09375 -16.28125 -4.34375 -17.03125 C -3.820312 -17.550781 -3.257812 -17.929688 -2.65625 -18.171875 C -2.0625 -18.421875 -1.453125 -18.535156 -0.828125 -18.515625 C -0.203125 -18.492188 0.414062 -18.335938 1.03125 -18.046875 C 1.644531 -17.753906 2.234375 -17.328125 2.796875 -16.765625 L 9.78125 -9.78125 L 8.078125 -8.078125 L 1.375 -14.78125 C 0.570312 -15.582031 -0.253906 -16 -1.109375 -16.03125 C -1.960938 -16.0625 -2.75 -15.71875 -3.46875 -15 C -4.195312 -14.269531 -4.535156 -13.457031 -4.484375 -12.5625 C -4.429688 -11.664062 -3.992188 -10.804688 -3.171875 -9.984375 L 3.40625 -3.40625 L 1.671875 -1.671875 Z M -12.265625 -15.609375 "/></g></g></g><g fill="#000000" fill-opacity="1"><g transform="translate(637.295604, 312.058123)"><g><path d="M -1.84375 -4.25 C -2.34375 -4.75 -2.707031 -5.285156 -2.9375 -5.859375 C -3.164062 -6.429688 -3.253906 -7.019531 -3.203125 -7.625 C -3.160156 -8.238281 -2.988281 -8.847656 -2.6875 -9.453125 C -2.382812 -10.054688 -1.945312 -10.644531 -1.375 -11.21875 L 1.75 -14.34375 L 0.890625 -15.203125 C 0.242188 -15.847656 -0.472656 -16.140625 -1.265625 -16.078125 C -2.054688 -16.015625 -2.847656 -15.585938 -3.640625 -14.796875 C -4.222656 -14.210938 -4.613281 -13.601562 -4.8125 -12.96875 C -5.019531 -12.34375 -5 -11.769531 -4.75 -11.25 L -6.46875 -9.53125 C -7.113281 -10.53125 -7.3125 -11.632812 -7.0625 -12.84375 C -6.820312 -14.0625 -6.160156 -15.210938 -5.078125 -16.296875 C -3.773438 -17.597656 -2.453125 -18.316406 -1.109375 -18.453125 C 0.222656 -18.597656 1.429688 -18.128906 2.515625 -17.046875 L 9.78125 -9.78125 L 8.203125 -8.203125 L 6.203125 -10.203125 L 6.046875 -10.046875 C 6.554688 -9.222656 6.703125 -8.304688 6.484375 -7.296875 C 6.273438 -6.296875 5.726562 -5.351562 4.84375 -4.46875 C 3.789062 -3.414062 2.660156 -2.867188 1.453125 -2.828125 C 0.242188 -2.785156 -0.851562 -3.257812 -1.84375 -4.25 Z M 3.8125 -6.25 C 4.25 -6.6875 4.59375 -7.144531 4.84375 -7.625 C 5.101562 -8.113281 5.257812 -8.597656 5.3125 -9.078125 C 5.363281 -9.554688 5.328125 -10.007812 5.203125 -10.4375 C 5.078125 -10.863281 4.847656 -11.242188 4.515625 -11.578125 L 3.09375 -13 L 0 -9.90625 C -0.625 -9.28125 -0.953125 -8.617188 -0.984375 -7.921875 C -1.023438 -7.234375 -0.753906 -6.597656 -0.171875 -6.015625 C 0.421875 -5.421875 1.066406 -5.144531 1.765625 -5.1875 C 2.460938 -5.226562 3.144531 -5.582031 3.8125 -6.25 Z M 3.8125 -6.25 "/></g></g></g><g fill="#000000" fill-opacity="1"><g transform="translate(648.745728, 300.608)"><g><path d="M 1.671875 -1.671875 L -8.828125 -12.171875 L -7.203125 -13.796875 L -5.390625 -11.984375 L -5.234375 -12.140625 C -5.703125 -12.941406 -5.859375 -13.769531 -5.703125 -14.625 C -5.546875 -15.476562 -5.09375 -16.28125 -4.34375 -17.03125 C -3.820312 -17.550781 -3.257812 -17.929688 -2.65625 -18.171875 C -2.0625 -18.421875 -1.453125 -18.535156 -0.828125 -18.515625 C -0.203125 -18.492188 0.414062 -18.335938 1.03125 -18.046875 C 1.644531 -17.753906 2.234375 -17.328125 2.796875 -16.765625 L 9.78125 -9.78125 L 8.078125 -8.078125 L 1.375 -14.78125 C 0.570312 -15.582031 -0.253906 -16 -1.109375 -16.03125 C -1.960938 -16.0625 -2.75 -15.71875 -3.46875 -15 C -4.195312 -14.269531 -4.535156 -13.457031 -4.484375 -12.5625 C -4.429688 -11.664062 -3.992188 -10.804688 -3.171875 -9.984375 L 3.40625 -3.40625 Z M 1.671875 -1.671875 "/></g></g></g><g fill="#000000" fill-opacity="1"><g transform="translate(660.195851, 289.157876)"><g><path d="M -5.296875 -8.078125 C -5.898438 -8.679688 -6.367188 -9.316406 -6.703125 -9.984375 C -7.035156 -10.648438 -7.21875 -11.3125 -7.25 -11.96875 C -7.28125 -12.625 -7.164062 -13.269531 -6.90625 -13.90625 C -6.644531 -14.539062 -6.242188 -15.128906 -5.703125 -15.671875 C -4.941406 -16.429688 -4.109375 -16.894531 -3.203125 -17.0625 C -2.304688 -17.238281 -1.429688 -17.085938 -0.578125 -16.609375 L -0.4375 -16.75 L -2.34375 -18.65625 L -0.71875 -20.28125 L 9.015625 -10.546875 C 10.242188 -9.316406 10.835938 -7.988281 10.796875 -6.5625 C 10.765625 -5.144531 10.097656 -3.785156 8.796875 -2.484375 L 6.203125 0.109375 L 4.625 -1.46875 L 7.21875 -4.0625 C 7.96875 -4.8125 8.351562 -5.601562 8.375 -6.4375 C 8.394531 -7.269531 8.03125 -8.0625 7.28125 -8.8125 L 6.890625 -9.203125 L 5.078125 -11.171875 L 4.96875 -11.0625 C 5.445312 -10.207031 5.597656 -9.328125 5.421875 -8.421875 C 5.253906 -7.523438 4.789062 -6.695312 4.03125 -5.9375 C 3.488281 -5.394531 2.898438 -5 2.265625 -4.75 C 1.628906 -4.5 0.984375 -4.390625 0.328125 -4.421875 C -0.328125 -4.453125 -0.988281 -4.628906 -1.65625 -4.953125 C -2.320312 -5.273438 -2.957031 -5.738281 -3.5625 -6.34375 Z M -1.796875 -8.109375 C -1.015625 -7.328125 -0.179688 -6.929688 0.703125 -6.921875 C 1.585938 -6.910156 2.410156 -7.285156 3.171875 -8.046875 C 3.941406 -8.816406 4.316406 -9.640625 4.296875 -10.515625 C 4.273438 -11.390625 3.875 -12.21875 3.09375 -13 L 1.359375 -14.734375 C 0.578125 -15.515625 -0.25 -15.914062 -1.125 -15.9375 C -2 -15.957031 -2.820312 -15.582031 -3.59375 -14.8125 C -4.351562 -14.050781 -4.726562 -13.226562 -4.71875 -12.34375 C -4.707031 -11.457031 -4.3125 -10.625 -3.53125 -9.84375 Z M -1.796875 -8.109375 "/></g></g></g><g fill="#000000" fill-opacity="1"><g transform="translate(671.645975, 277.707753)"><g><path d="M 5.90625 -5.53125 C 4.59375 -4.21875 3.210938 -3.546875 1.765625 -3.515625 C 0.316406 -3.484375 -1.035156 -4.097656 -2.296875 -5.359375 L -5.15625 -8.21875 C -6.394531 -9.457031 -7 -10.800781 -6.96875 -12.25 C -6.945312 -13.707031 -6.28125 -15.09375 -4.96875 -16.40625 C -3.65625 -17.71875 -2.265625 -18.390625 -0.796875 -18.421875 C 0.660156 -18.460938 2.007812 -17.863281 3.25 -16.625 L 5.1875 -14.6875 L -1.5 -8 L -0.65625 -7.15625 C 0.144531 -6.351562 0.988281 -5.941406 1.875 -5.921875 C 2.769531 -5.910156 3.601562 -6.289062 4.375 -7.0625 C 4.945312 -7.632812 5.359375 -8.21875 5.609375 -8.8125 C 5.859375 -9.40625 5.910156 -9.984375 5.765625 -10.546875 L 7.46875 -12.25 C 8.0625 -11.238281 8.210938 -10.128906 7.921875 -8.921875 C 7.640625 -7.722656 6.96875 -6.59375 5.90625 -5.53125 Z M 2.015625 -14.390625 L 1.515625 -14.890625 C 0.734375 -15.671875 -0.0820312 -16.0625 -0.9375 -16.0625 C -1.800781 -16.070312 -2.632812 -15.675781 -3.4375 -14.875 C -4.21875 -14.09375 -4.609375 -13.269531 -4.609375 -12.40625 C -4.609375 -11.539062 -4.21875 -10.71875 -3.4375 -9.9375 L -2.9375 -9.4375 Z M 2.015625 -14.390625 "/></g></g></g><g fill="#000000" fill-opacity="1"><g transform="translate(683.096098, 266.257629)"><g><path d="M -7.984375 -19.890625 L 2.90625 -9 C 3.363281 -8.539062 3.851562 -8.304688 4.375 -8.296875 C 4.894531 -8.285156 5.378906 -8.503906 5.828125 -8.953125 L 8.9375 -12.0625 L 10.5 -10.5 L 7.390625 -7.390625 C 6.410156 -6.410156 5.367188 -5.910156 4.265625 -5.890625 C 3.171875 -5.878906 2.148438 -6.347656 1.203125 -7.296875 L -8.125 -16.625 L -11.609375 -13.140625 L -13.171875 -14.703125 Z M -7.984375 -19.890625 "/></g></g></g><g fill="#000000" fill-opacity="1"><g transform="translate(694.546222, 254.807506)"><g><path d="M -0.65625 -7.15625 C 0.144531 -6.351562 0.988281 -5.941406 1.875 -5.921875 C 2.769531 -5.910156 3.601562 -6.289062 4.375 -7.0625 C 5.144531 -7.832031 5.523438 -8.664062 5.515625 -9.5625 C 5.503906 -10.457031 5.097656 -11.304688 4.296875 -12.109375 L 1.625 -14.78125 C 0.8125 -15.59375 -0.0390625 -16.003906 -0.9375 -16.015625 C -1.832031 -16.023438 -2.664062 -15.644531 -3.4375 -14.875 C -4.195312 -14.113281 -4.570312 -13.285156 -4.5625 -12.390625 C -4.550781 -11.492188 -4.140625 -10.640625 -3.328125 -9.828125 Z M -5.046875 -8.109375 C -5.691406 -8.753906 -6.164062 -9.425781 -6.46875 -10.125 C -6.769531 -10.820312 -6.921875 -11.53125 -6.921875 -12.25 C -6.921875 -12.96875 -6.753906 -13.675781 -6.421875 -14.375 C -6.097656 -15.082031 -5.613281 -15.757812 -4.96875 -16.40625 C -3.664062 -17.707031 -2.273438 -18.375 -0.796875 -18.40625 C 0.679688 -18.4375 2.054688 -17.816406 3.328125 -16.546875 L 6.03125 -13.84375 C 6.65625 -13.21875 7.125 -12.550781 7.4375 -11.84375 C 7.757812 -11.144531 7.910156 -10.4375 7.890625 -9.71875 C 7.878906 -9.007812 7.707031 -8.296875 7.375 -7.578125 C 7.050781 -6.867188 6.5625 -6.1875 5.90625 -5.53125 C 5.257812 -4.882812 4.582031 -4.398438 3.875 -4.078125 C 3.164062 -3.753906 2.453125 -3.585938 1.734375 -3.578125 C 1.023438 -3.578125 0.316406 -3.734375 -0.390625 -4.046875 C -1.097656 -4.359375 -1.757812 -4.820312 -2.375 -5.4375 Z M -5.046875 -8.109375 "/></g></g></g><g fill="#000000" fill-opacity="1"><g transform="translate(705.996345, 243.357382)"><g><path d="M -5.296875 -8.078125 C -5.898438 -8.679688 -6.367188 -9.316406 -6.703125 -9.984375 C -7.035156 -10.648438 -7.21875 -11.3125 -7.25 -11.96875 C -7.28125 -12.625 -7.164062 -13.269531 -6.90625 -13.90625 C -6.644531 -14.539062 -6.242188 -15.128906 -5.703125 -15.671875 C -4.941406 -16.429688 -4.109375 -16.894531 -3.203125 -17.0625 C -2.304688 -17.238281 -1.429688 -17.085938 -0.578125 -16.609375 L -0.4375 -16.75 L -2.34375 -18.65625 L -0.71875 -20.28125 L 9.015625 -10.546875 C 10.242188 -9.316406 10.835938 -7.988281 10.796875 -6.5625 C 10.765625 -5.144531 10.097656 -3.785156 8.796875 -2.484375 L 6.203125 0.109375 L 4.625 -1.46875 L 7.21875 -4.0625 C 7.96875 -4.8125 8.351562 -5.601562 8.375 -6.4375 C 8.394531 -7.269531 8.03125 -8.0625 7.28125 -8.8125 L 6.890625 -9.203125 L 5.078125 -11.171875 L 4.96875 -11.0625 C 5.445312 -10.207031 5.597656 -9.328125 5.421875 -8.421875 C 5.253906 -7.523438 4.789062 -6.695312 4.03125 -5.9375 C 3.488281 -5.394531 2.898438 -5 2.265625 -4.75 C 1.628906 -4.5 0.984375 -4.390625 0.328125 -4.421875 C -0.328125 -4.453125 -0.988281 -4.628906 -1.65625 -4.953125 C -2.320312 -5.273438 -2.957031 -5.738281 -3.5625 -6.34375 Z M -1.796875 -8.109375 C -1.015625 -7.328125 -0.179688 -6.929688 0.703125 -6.921875 C 1.585938 -6.910156 2.410156 -7.285156 3.171875 -8.046875 C 3.941406 -8.816406 4.316406 -9.640625 4.296875 -10.515625 C 4.273438 -11.390625 3.875 -12.21875 3.09375 -13 L 1.359375 -14.734375 C 0.578125 -15.515625 -0.25 -15.914062 -1.125 -15.9375 C -2 -15.957031 -2.820312 -15.582031 -3.59375 -14.8125 C -4.351562 -14.050781 -4.726562 -13.226562 -4.71875 -12.34375 C -4.707031 -11.457031 -4.3125 -10.625 -3.53125 -9.84375 Z M -1.796875 -8.109375 "/></g></g></g><g fill="#000000" fill-opacity="1"><g transform="translate(797.205751, 334.891201)"><g><path d="M -12.265625 -15.609375 L -10.53125 -17.34375 L -7.28125 -14.09375 C -7.101562 -13.914062 -6.898438 -13.703125 -6.671875 -13.453125 C -6.453125 -13.210938 -6.242188 -12.984375 -6.046875 -12.765625 C -5.828125 -12.503906 -5.609375 -12.242188 -5.390625 -11.984375 L -5.234375 -12.140625 C -5.703125 -12.941406 -5.859375 -13.769531 -5.703125 -14.625 C -5.546875 -15.476562 -5.078125 -16.296875 -4.296875 -17.078125 C -3.765625 -17.609375 -3.1875 -18 -2.5625 -18.25 C -1.9375 -18.5 -1.296875 -18.597656 -0.640625 -18.546875 C 0.00390625 -18.503906 0.671875 -18.316406 1.359375 -17.984375 C 2.046875 -17.648438 2.710938 -17.160156 3.359375 -16.515625 L 6.03125 -13.84375 C 6.65625 -13.21875 7.132812 -12.5625 7.46875 -11.875 C 7.800781 -11.1875 7.988281 -10.515625 8.03125 -9.859375 C 8.082031 -9.210938 7.984375 -8.570312 7.734375 -7.9375 C 7.492188 -7.3125 7.109375 -6.734375 6.578125 -6.203125 C 5.796875 -5.421875 4.976562 -4.953125 4.125 -4.796875 C 3.269531 -4.640625 2.441406 -4.796875 1.640625 -5.265625 L 1.484375 -5.109375 L 3.296875 -3.296875 L 1.671875 -1.671875 Z M -0.5 -7.3125 C 0.300781 -6.507812 1.144531 -6.082031 2.03125 -6.03125 C 2.925781 -5.988281 3.734375 -6.328125 4.453125 -7.046875 C 5.210938 -7.804688 5.578125 -8.640625 5.546875 -9.546875 C 5.515625 -10.453125 5.097656 -11.304688 4.296875 -12.109375 L 1.625 -14.78125 C 0.789062 -15.613281 -0.0664062 -16.046875 -0.953125 -16.078125 C -1.835938 -16.109375 -2.671875 -15.734375 -3.453125 -14.953125 C -4.171875 -14.234375 -4.503906 -13.425781 -4.453125 -12.53125 C -4.410156 -11.644531 -3.984375 -10.796875 -3.171875 -9.984375 Z M -0.5 -7.3125 "/></g></g></g><g fill="#000000" fill-opacity="1"><g transform="translate(808.655875, 323.441077)"><g><path d="M -8.78125 -12.21875 L -7.0625 -13.9375 L -0.265625 -7.140625 C 1.328125 -5.546875 2.882812 -5.507812 4.40625 -7.03125 C 5.9375 -8.5625 5.90625 -10.125 4.3125 -11.71875 L -2.484375 -18.515625 L -0.765625 -20.234375 L 6.03125 -13.4375 C 7.28125 -12.1875 7.894531 -10.878906 7.875 -9.515625 C 7.851562 -8.148438 7.195312 -6.820312 5.90625 -5.53125 C 4.625 -4.25 3.296875 -3.601562 1.921875 -3.59375 C 0.546875 -3.582031 -0.753906 -4.191406 -1.984375 -5.421875 Z M -8.78125 -12.21875 "/></g></g></g><g fill="#000000" fill-opacity="1"><g transform="translate(820.105998, 311.990954)"><g><path d="M -9.3125 -11.6875 L -7.953125 -13.046875 L -6.40625 -11.5 L -6.28125 -11.625 C -6.78125 -12.226562 -7.023438 -12.832031 -7.015625 -13.4375 C -7.015625 -14.050781 -6.757812 -14.613281 -6.25 -15.125 C -5.75 -15.625 -5.179688 -15.890625 -4.546875 -15.921875 C -3.910156 -15.953125 -3.253906 -15.753906 -2.578125 -15.328125 L -2.484375 -15.421875 C -2.984375 -16.023438 -3.226562 -16.628906 -3.21875 -17.234375 C -3.21875 -17.847656 -2.960938 -18.410156 -2.453125 -18.921875 C -1.804688 -19.566406 -1.066406 -19.832031 -0.234375 -19.71875 C 0.597656 -19.601562 1.4375 -19.125 2.28125 -18.28125 L 10.28125 -10.28125 L 8.78125 -8.78125 L 0.78125 -16.78125 C 0.332031 -17.226562 -0.101562 -17.46875 -0.53125 -17.5 C -0.96875 -17.539062 -1.367188 -17.378906 -1.734375 -17.015625 C -2.515625 -16.234375 -2.414062 -15.351562 -1.4375 -14.375 L 6.46875 -6.46875 L 4.984375 -4.984375 L -3.015625 -12.984375 C -3.378906 -13.347656 -3.785156 -13.582031 -4.234375 -13.6875 C -4.679688 -13.789062 -5.117188 -13.628906 -5.546875 -13.203125 C -5.921875 -12.828125 -6.078125 -12.390625 -6.015625 -11.890625 C -5.941406 -11.460938 -5.679688 -11.023438 -5.234375 -10.578125 L 2.671875 -2.671875 L 1.1875 -1.1875 Z M -9.3125 -11.6875 "/></g></g></g><g fill="#000000" fill-opacity="1"><g transform="translate(831.556122, 300.54083)"><g><path d="M -7.203125 -13.796875 L -5.390625 -11.984375 L -5.234375 -12.140625 C -5.703125 -12.941406 -5.859375 -13.769531 -5.703125 -14.625 C -5.546875 -15.476562 -5.078125 -16.296875 -4.296875 -17.078125 C -3.765625 -17.609375 -3.1875 -18 -2.5625 -18.25 C -1.9375 -18.5 -1.296875 -18.597656 -0.640625 -18.546875 C 0.00390625 -18.503906 0.671875 -18.316406 1.359375 -17.984375 C 2.046875 -17.648438 2.710938 -17.160156 3.359375 -16.515625 L 6.03125 -13.84375 C 6.65625 -13.21875 7.132812 -12.5625 7.46875 -11.875 C 7.800781 -11.1875 7.988281 -10.515625 8.03125 -9.859375 C 8.082031 -9.210938 7.984375 -8.570312 7.734375 -7.9375 C 7.492188 -7.3125 7.109375 -6.734375 6.578125 -6.203125 C 5.796875 -5.421875 4.976562 -4.953125 4.125 -4.796875 C 3.269531 -4.640625 2.441406 -4.796875 1.640625 -5.265625 L 1.484375 -5.109375 C 1.722656 -4.910156 1.960938 -4.710938 2.203125 -4.515625 C 2.398438 -4.335938 2.601562 -4.148438 2.8125 -3.953125 C 3.03125 -3.765625 3.226562 -3.582031 3.40625 -3.40625 L 6.5625 -0.25 L 4.828125 1.484375 L -8.828125 -12.171875 Z M -0.5 -7.3125 C 0.300781 -6.507812 1.144531 -6.082031 2.03125 -6.03125 C 2.925781 -5.988281 3.734375 -6.328125 4.453125 -7.046875 C 5.210938 -7.804688 5.578125 -8.640625 5.546875 -9.546875 C 5.515625 -10.453125 5.097656 -11.304688 4.296875 -12.109375 L 1.625 -14.78125 C 0.789062 -15.613281 -0.0664062 -16.046875 -0.953125 -16.078125 C -1.835938 -16.109375 -2.671875 -15.734375 -3.453125 -14.953125 C -4.171875 -14.234375 -4.503906 -13.425781 -4.453125 -12.53125 C -4.410156 -11.644531 -3.984375 -10.796875 -3.171875 -9.984375 Z M -0.5 -7.3125 "/></g></g></g><g fill="#000000" fill-opacity="1"><g transform="translate(843.006245, 289.090707)"><g/></g></g><g fill="#000000" fill-opacity="1"><g transform="translate(854.456369, 277.640583)"><g><path d="M -6.734375 -9.046875 L -8.296875 -10.609375 L -5.25 -13.65625 L -7.0625 -15.46875 C -7.90625 -16.3125 -8.300781 -17.226562 -8.25 -18.21875 C -8.195312 -19.207031 -7.710938 -20.160156 -6.796875 -21.078125 L -3.734375 -24.140625 L -2.171875 -22.578125 L -5.234375 -19.515625 C -6.046875 -18.703125 -6.082031 -17.925781 -5.34375 -17.1875 L -3.53125 -15.375 L 0.75 -19.65625 L 2.3125 -18.09375 L -1.96875 -13.8125 L 5.921875 -5.921875 L 4.203125 -4.203125 L -3.6875 -12.09375 Z M -6.734375 -9.046875 "/></g></g></g><g fill="#000000" fill-opacity="1"><g transform="translate(865.906492, 266.19046)"><g><path d="M 1.8125 -1.8125 L 0.25 -3.375 L 4.078125 -7.203125 L -3.296875 -14.578125 L -6.65625 -11.21875 L -8.21875 -12.78125 L -3.15625 -17.84375 L 5.78125 -8.90625 L 8.9375 -12.0625 L 10.5 -10.5 Z M -8.59375 -20.625 L -8.21875 -21 C -7.84375 -21.375 -7.429688 -21.566406 -6.984375 -21.578125 C -6.535156 -21.585938 -6.144531 -21.425781 -5.8125 -21.09375 C -5.457031 -20.738281 -5.289062 -20.34375 -5.3125 -19.90625 C -5.34375 -19.476562 -5.546875 -19.078125 -5.921875 -18.703125 L -6.296875 -18.328125 C -6.671875 -17.953125 -7.070312 -17.75 -7.5 -17.71875 C -7.925781 -17.6875 -8.320312 -17.851562 -8.6875 -18.21875 C -9.019531 -18.550781 -9.179688 -18.941406 -9.171875 -19.390625 C -9.160156 -19.835938 -8.96875 -20.25 -8.59375 -20.625 Z M -8.59375 -20.625 "/></g></g></g><g fill="#000000" fill-opacity="1"><g transform="translate(877.356616, 254.740336)"><g><path d="M -7.984375 -19.890625 L 2.90625 -9 C 3.363281 -8.539062 3.851562 -8.304688 4.375 -8.296875 C 4.894531 -8.285156 5.378906 -8.503906 5.828125 -8.953125 L 8.9375 -12.0625 L 10.5 -10.5 L 7.390625 -7.390625 C 6.410156 -6.410156 5.367188 -5.910156 4.265625 -5.890625 C 3.171875 -5.878906 2.148438 -6.347656 1.203125 -7.296875 L -8.125 -16.625 L -11.609375 -13.140625 L -13.171875 -14.703125 Z M -7.984375 -19.890625 "/></g></g></g><g fill="#000000" fill-opacity="1"><g transform="translate(888.806739, 243.290213)"><g><path d="M 5.90625 -5.53125 C 4.59375 -4.21875 3.210938 -3.546875 1.765625 -3.515625 C 0.316406 -3.484375 -1.035156 -4.097656 -2.296875 -5.359375 L -5.15625 -8.21875 C -6.394531 -9.457031 -7 -10.800781 -6.96875 -12.25 C -6.945312 -13.707031 -6.28125 -15.09375 -4.96875 -16.40625 C -3.65625 -17.71875 -2.265625 -18.390625 -0.796875 -18.421875 C 0.660156 -18.460938 2.007812 -17.863281 3.25 -16.625 L 5.1875 -14.6875 L -1.5 -8 L -0.65625 -7.15625 C 0.144531 -6.351562 0.988281 -5.941406 1.875 -5.921875 C 2.769531 -5.910156 3.601562 -6.289062 4.375 -7.0625 C 4.945312 -7.632812 5.359375 -8.21875 5.609375 -8.8125 C 5.859375 -9.40625 5.910156 -9.984375 5.765625 -10.546875 L 7.46875 -12.25 C 8.0625 -11.238281 8.210938 -10.128906 7.921875 -8.921875 C 7.640625 -7.722656 6.96875 -6.59375 5.90625 -5.53125 Z M 2.015625 -14.390625 L 1.515625 -14.890625 C 0.734375 -15.671875 -0.0820312 -16.0625 -0.9375 -16.0625 C -1.800781 -16.070312 -2.632812 -15.675781 -3.4375 -14.875 C -4.21875 -14.09375 -4.609375 -13.269531 -4.609375 -12.40625 C -4.609375 -11.539062 -4.21875 -10.71875 -3.4375 -9.9375 L -2.9375 -9.4375 Z M 2.015625 -14.390625 "/></g></g></g><g fill="#000000" fill-opacity="1"><g transform="translate(900.256863, 231.840089)"><g><path d="M 5.625 -5.25 C 4.519531 -4.144531 3.359375 -3.484375 2.140625 -3.265625 C 0.921875 -3.046875 -0.160156 -3.304688 -1.109375 -4.046875 L 0.703125 -5.859375 C 1.160156 -5.566406 1.695312 -5.503906 2.3125 -5.671875 C 2.925781 -5.835938 3.519531 -6.207031 4.09375 -6.78125 L 4.640625 -7.328125 C 5.316406 -8.003906 5.703125 -8.675781 5.796875 -9.34375 C 5.898438 -10.019531 5.710938 -10.597656 5.234375 -11.078125 C 4.398438 -11.910156 3.304688 -11.828125 1.953125 -10.828125 L 0.15625 -9.46875 C -1.03125 -8.59375 -2.125 -8.144531 -3.125 -8.125 C -4.132812 -8.113281 -5.085938 -8.554688 -5.984375 -9.453125 C -6.921875 -10.390625 -7.3125 -11.453125 -7.15625 -12.640625 C -7.007812 -13.835938 -6.34375 -15.03125 -5.15625 -16.21875 L -4.609375 -16.765625 C -4.097656 -17.273438 -3.566406 -17.679688 -3.015625 -17.984375 C -2.460938 -18.285156 -1.898438 -18.484375 -1.328125 -18.578125 C -0.753906 -18.671875 -0.203125 -18.660156 0.328125 -18.546875 C 0.859375 -18.429688 1.359375 -18.210938 1.828125 -17.890625 L 0 -16.0625 C -0.40625 -16.320312 -0.890625 -16.375 -1.453125 -16.21875 C -2.023438 -16.070312 -2.566406 -15.742188 -3.078125 -15.234375 L -3.625 -14.6875 C -4.269531 -14.039062 -4.644531 -13.40625 -4.75 -12.78125 C -4.863281 -12.164062 -4.671875 -11.609375 -4.171875 -11.109375 C -3.765625 -10.703125 -3.328125 -10.515625 -2.859375 -10.546875 C -2.398438 -10.585938 -1.851562 -10.851562 -1.21875 -11.34375 L 0.59375 -12.6875 C 1.894531 -13.65625 3.050781 -14.148438 4.0625 -14.171875 C 5.070312 -14.191406 6.035156 -13.742188 6.953125 -12.828125 C 7.929688 -11.847656 8.351562 -10.738281 8.21875 -9.5 C 8.09375 -8.269531 7.410156 -7.035156 6.171875 -5.796875 Z M 5.625 -5.25 "/></g></g></g><g fill="#000000" fill-opacity="1"><g transform="translate(977.762064, 334.608642)"><g><path d="M -8.78125 -12.21875 L -7.0625 -13.9375 L -0.265625 -7.140625 C 1.328125 -5.546875 2.882812 -5.507812 4.40625 -7.03125 C 5.9375 -8.5625 5.90625 -10.125 4.3125 -11.71875 L -2.484375 -18.515625 L -0.765625 -20.234375 L 6.03125 -13.4375 C 7.28125 -12.1875 7.894531 -10.878906 7.875 -9.515625 C 7.851562 -8.148438 7.195312 -6.820312 5.90625 -5.53125 C 4.625 -4.25 3.296875 -3.601562 1.921875 -3.59375 C 0.546875 -3.582031 -0.753906 -4.191406 -1.984375 -5.421875 Z M -8.78125 -12.21875 "/></g></g></g><g fill="#000000" fill-opacity="1"><g transform="translate(989.212187, 323.158519)"><g><path d="M 5.625 -5.25 C 4.519531 -4.144531 3.359375 -3.484375 2.140625 -3.265625 C 0.921875 -3.046875 -0.160156 -3.304688 -1.109375 -4.046875 L 0.703125 -5.859375 C 1.160156 -5.566406 1.695312 -5.503906 2.3125 -5.671875 C 2.925781 -5.835938 3.519531 -6.207031 4.09375 -6.78125 L 4.640625 -7.328125 C 5.316406 -8.003906 5.703125 -8.675781 5.796875 -9.34375 C 5.898438 -10.019531 5.710938 -10.597656 5.234375 -11.078125 C 4.398438 -11.910156 3.304688 -11.828125 1.953125 -10.828125 L 0.15625 -9.46875 C -1.03125 -8.59375 -2.125 -8.144531 -3.125 -8.125 C -4.132812 -8.113281 -5.085938 -8.554688 -5.984375 -9.453125 C -6.921875 -10.390625 -7.3125 -11.453125 -7.15625 -12.640625 C -7.007812 -13.835938 -6.34375 -15.03125 -5.15625 -16.21875 L -4.609375 -16.765625 C -4.097656 -17.273438 -3.566406 -17.679688 -3.015625 -17.984375 C -2.460938 -18.285156 -1.898438 -18.484375 -1.328125 -18.578125 C -0.753906 -18.671875 -0.203125 -18.660156 0.328125 -18.546875 C 0.859375 -18.429688 1.359375 -18.210938 1.828125 -17.890625 L 0 -16.0625 C -0.40625 -16.320312 -0.890625 -16.375 -1.453125 -16.21875 C -2.023438 -16.070312 -2.566406 -15.742188 -3.078125 -15.234375 L -3.625 -14.6875 C -4.269531 -14.039062 -4.644531 -13.40625 -4.75 -12.78125 C -4.863281 -12.164062 -4.671875 -11.609375 -4.171875 -11.109375 C -3.765625 -10.703125 -3.328125 -10.515625 -2.859375 -10.546875 C -2.398438 -10.585938 -1.851562 -10.851562 -1.21875 -11.34375 L 0.59375 -12.6875 C 1.894531 -13.65625 3.050781 -14.148438 4.0625 -14.171875 C 5.070312 -14.191406 6.035156 -13.742188 6.953125 -12.828125 C 7.929688 -11.847656 8.351562 -10.738281 8.21875 -9.5 C 8.09375 -8.269531 7.410156 -7.035156 6.171875 -5.796875 Z M 5.625 -5.25 "/></g></g></g><g fill="#000000" fill-opacity="1"><g transform="translate(1000.662311, 311.708395)"><g><path d="M 5.90625 -5.53125 C 4.59375 -4.21875 3.210938 -3.546875 1.765625 -3.515625 C 0.316406 -3.484375 -1.035156 -4.097656 -2.296875 -5.359375 L -5.15625 -8.21875 C -6.394531 -9.457031 -7 -10.800781 -6.96875 -12.25 C -6.945312 -13.707031 -6.28125 -15.09375 -4.96875 -16.40625 C -3.65625 -17.71875 -2.265625 -18.390625 -0.796875 -18.421875 C 0.660156 -18.460938 2.007812 -17.863281 3.25 -16.625 L 5.1875 -14.6875 L -1.5 -8 L -0.65625 -7.15625 C 0.144531 -6.351562 0.988281 -5.941406 1.875 -5.921875 C 2.769531 -5.910156 3.601562 -6.289062 4.375 -7.0625 C 4.945312 -7.632812 5.359375 -8.21875 5.609375 -8.8125 C 5.859375 -9.40625 5.910156 -9.984375 5.765625 -10.546875 L 7.46875 -12.25 C 8.0625 -11.238281 8.210938 -10.128906 7.921875 -8.921875 C 7.640625 -7.722656 6.96875 -6.59375 5.90625 -5.53125 Z M 2.015625 -14.390625 L 1.515625 -14.890625 C 0.734375 -15.671875 -0.0820312 -16.0625 -0.9375 -16.0625 C -1.800781 -16.070312 -2.632812 -15.675781 -3.4375 -14.875 C -4.21875 -14.09375 -4.609375 -13.269531 -4.609375 -12.40625 C -4.609375 -11.539062 -4.21875 -10.71875 -3.4375 -9.9375 L -2.9375 -9.4375 Z M 2.015625 -14.390625 "/></g></g></g><g fill="#000000" fill-opacity="1"><g transform="translate(1012.112435, 300.258272)"><g><path d="M -8.359375 -12.640625 L -6.75 -14.25 L -4.9375 -12.4375 L -4.78125 -12.59375 C -5.226562 -13.394531 -5.367188 -14.226562 -5.203125 -15.09375 C -5.046875 -15.96875 -4.582031 -16.789062 -3.8125 -17.5625 C -2.707031 -18.664062 -1.492188 -19.1875 -0.171875 -19.125 C 1.148438 -19.0625 2.414062 -18.425781 3.625 -17.21875 L 4.21875 -16.625 L 2.5 -14.90625 L 2.125 -15.28125 C 1.289062 -16.113281 0.441406 -16.550781 -0.421875 -16.59375 C -1.285156 -16.632812 -2.101562 -16.269531 -2.875 -15.5 C -3.625 -14.75 -3.988281 -13.921875 -3.96875 -13.015625 C -3.945312 -12.109375 -3.53125 -11.25 -2.71875 -10.4375 L 3.859375 -3.859375 L 2.140625 -2.140625 Z M -8.359375 -12.640625 "/></g></g></g><g fill="#000000" fill-opacity="1"><g transform="translate(1023.562558, 288.808148)"><g/></g></g><g fill="#000000" fill-opacity="1"><g transform="translate(1035.012682, 277.358024)"><g><path d="M 5.625 -5.25 C 4.519531 -4.144531 3.359375 -3.484375 2.140625 -3.265625 C 0.921875 -3.046875 -0.160156 -3.304688 -1.109375 -4.046875 L 0.703125 -5.859375 C 1.160156 -5.566406 1.695312 -5.503906 2.3125 -5.671875 C 2.925781 -5.835938 3.519531 -6.207031 4.09375 -6.78125 L 4.640625 -7.328125 C 5.316406 -8.003906 5.703125 -8.675781 5.796875 -9.34375 C 5.898438 -10.019531 5.710938 -10.597656 5.234375 -11.078125 C 4.398438 -11.910156 3.304688 -11.828125 1.953125 -10.828125 L 0.15625 -9.46875 C -1.03125 -8.59375 -2.125 -8.144531 -3.125 -8.125 C -4.132812 -8.113281 -5.085938 -8.554688 -5.984375 -9.453125 C -6.921875 -10.390625 -7.3125 -11.453125 -7.15625 -12.640625 C -7.007812 -13.835938 -6.34375 -15.03125 -5.15625 -16.21875 L -4.609375 -16.765625 C -4.097656 -17.273438 -3.566406 -17.679688 -3.015625 -17.984375 C -2.460938 -18.285156 -1.898438 -18.484375 -1.328125 -18.578125 C -0.753906 -18.671875 -0.203125 -18.660156 0.328125 -18.546875 C 0.859375 -18.429688 1.359375 -18.210938 1.828125 -17.890625 L 0 -16.0625 C -0.40625 -16.320312 -0.890625 -16.375 -1.453125 -16.21875 C -2.023438 -16.070312 -2.566406 -15.742188 -3.078125 -15.234375 L -3.625 -14.6875 C -4.269531 -14.039062 -4.644531 -13.40625 -4.75 -12.78125 C -4.863281 -12.164062 -4.671875 -11.609375 -4.171875 -11.109375 C -3.765625 -10.703125 -3.328125 -10.515625 -2.859375 -10.546875 C -2.398438 -10.585938 -1.851562 -10.851562 -1.21875 -11.34375 L 0.59375 -12.6875 C 1.894531 -13.65625 3.050781 -14.148438 4.0625 -14.171875 C 5.070312 -14.191406 6.035156 -13.742188 6.953125 -12.828125 C 7.929688 -11.847656 8.351562 -10.738281 8.21875 -9.5 C 8.09375 -8.269531 7.410156 -7.035156 6.171875 -5.796875 Z M 5.625 -5.25 "/></g></g></g><g fill="#000000" fill-opacity="1"><g transform="translate(1046.462805, 265.907901)"><g><path d="M 6.0625 -5.6875 C 5.414062 -5.039062 4.738281 -4.554688 4.03125 -4.234375 C 3.320312 -3.910156 2.609375 -3.742188 1.890625 -3.734375 C 1.179688 -3.734375 0.472656 -3.882812 -0.234375 -4.1875 C -0.953125 -4.5 -1.617188 -4.960938 -2.234375 -5.578125 L -4.90625 -8.25 C -5.539062 -8.882812 -6.007812 -9.554688 -6.3125 -10.265625 C -6.613281 -10.972656 -6.765625 -11.6875 -6.765625 -12.40625 C -6.765625 -13.125 -6.597656 -13.832031 -6.265625 -14.53125 C -5.941406 -15.238281 -5.457031 -15.914062 -4.8125 -16.5625 C -3.65625 -17.71875 -2.390625 -18.359375 -1.015625 -18.484375 C 0.359375 -18.609375 1.671875 -18.191406 2.921875 -17.234375 L 1.203125 -15.515625 C 0.503906 -16.046875 -0.25 -16.265625 -1.0625 -16.171875 C -1.875 -16.078125 -2.613281 -15.695312 -3.28125 -15.03125 C -4.039062 -14.269531 -4.414062 -13.441406 -4.40625 -12.546875 C -4.394531 -11.648438 -3.984375 -10.796875 -3.171875 -9.984375 L -0.5 -7.3125 C 0.300781 -6.507812 1.144531 -6.097656 2.03125 -6.078125 C 2.925781 -6.066406 3.757812 -6.445312 4.53125 -7.21875 C 5.195312 -7.882812 5.578125 -8.625 5.671875 -9.4375 C 5.765625 -10.25 5.546875 -11.003906 5.015625 -11.703125 L 6.734375 -13.421875 C 7.679688 -12.140625 8.09375 -10.816406 7.96875 -9.453125 C 7.84375 -8.085938 7.207031 -6.832031 6.0625 -5.6875 Z M 6.0625 -5.6875 "/></g></g></g><g fill="#000000" fill-opacity="1"><g transform="translate(1057.912929, 254.457777)"><g><path d="M -8.359375 -12.640625 L -6.75 -14.25 L -4.9375 -12.4375 L -4.78125 -12.59375 C -5.226562 -13.394531 -5.367188 -14.226562 -5.203125 -15.09375 C -5.046875 -15.96875 -4.582031 -16.789062 -3.8125 -17.5625 C -2.707031 -18.664062 -1.492188 -19.1875 -0.171875 -19.125 C 1.148438 -19.0625 2.414062 -18.425781 3.625 -17.21875 L 4.21875 -16.625 L 2.5 -14.90625 L 2.125 -15.28125 C 1.289062 -16.113281 0.441406 -16.550781 -0.421875 -16.59375 C -1.285156 -16.632812 -2.101562 -16.269531 -2.875 -15.5 C -3.625 -14.75 -3.988281 -13.921875 -3.96875 -13.015625 C -3.945312 -12.109375 -3.53125 -11.25 -2.71875 -10.4375 L 3.859375 -3.859375 L 2.140625 -2.140625 Z M -8.359375 -12.640625 "/></g></g></g><g fill="#000000" fill-opacity="1"><g transform="translate(1069.363052, 243.007654)"><g><path d="M 1.8125 -1.8125 L 0.25 -3.375 L 4.078125 -7.203125 L -3.296875 -14.578125 L -6.65625 -11.21875 L -8.21875 -12.78125 L -3.15625 -17.84375 L 5.78125 -8.90625 L 8.9375 -12.0625 L 10.5 -10.5 Z M -8.59375 -20.625 L -8.21875 -21 C -7.84375 -21.375 -7.429688 -21.566406 -6.984375 -21.578125 C -6.535156 -21.585938 -6.144531 -21.425781 -5.8125 -21.09375 C -5.457031 -20.738281 -5.289062 -20.34375 -5.3125 -19.90625 C -5.34375 -19.476562 -5.546875 -19.078125 -5.921875 -18.703125 L -6.296875 -18.328125 C -6.671875 -17.953125 -7.070312 -17.75 -7.5 -17.71875 C -7.925781 -17.6875 -8.320312 -17.851562 -8.6875 -18.21875 C -9.019531 -18.550781 -9.179688 -18.941406 -9.171875 -19.390625 C -9.160156 -19.835938 -8.96875 -20.25 -8.59375 -20.625 Z M -8.59375 -20.625 "/></g></g></g><g fill="#000000" fill-opacity="1"><g transform="translate(1080.813176, 231.55753)"><g><path d="M -7.203125 -13.796875 L -5.390625 -11.984375 L -5.234375 -12.140625 C -5.703125 -12.941406 -5.859375 -13.769531 -5.703125 -14.625 C -5.546875 -15.476562 -5.078125 -16.296875 -4.296875 -17.078125 C -3.765625 -17.609375 -3.1875 -18 -2.5625 -18.25 C -1.9375 -18.5 -1.296875 -18.597656 -0.640625 -18.546875 C 0.00390625 -18.503906 0.671875 -18.316406 1.359375 -17.984375 C 2.046875 -17.648438 2.710938 -17.160156 3.359375 -16.515625 L 6.03125 -13.84375 C 6.65625 -13.21875 7.132812 -12.5625 7.46875 -11.875 C 7.800781 -11.1875 7.988281 -10.515625 8.03125 -9.859375 C 8.082031 -9.210938 7.984375 -8.570312 7.734375 -7.9375 C 7.492188 -7.3125 7.109375 -6.734375 6.578125 -6.203125 C 5.796875 -5.421875 4.976562 -4.953125 4.125 -4.796875 C 3.269531 -4.640625 2.441406 -4.796875 1.640625 -5.265625 L 1.484375 -5.109375 C 1.722656 -4.910156 1.960938 -4.710938 2.203125 -4.515625 C 2.398438 -4.335938 2.601562 -4.148438 2.8125 -3.953125 C 3.03125 -3.765625 3.226562 -3.582031 3.40625 -3.40625 L 6.5625 -0.25 L 4.828125 1.484375 L -8.828125 -12.171875 Z M -0.5 -7.3125 C 0.300781 -6.507812 1.144531 -6.082031 2.03125 -6.03125 C 2.925781 -5.988281 3.734375 -6.328125 4.453125 -7.046875 C 5.210938 -7.804688 5.578125 -8.640625 5.546875 -9.546875 C 5.515625 -10.453125 5.097656 -11.304688 4.296875 -12.109375 L 1.625 -14.78125 C 0.789062 -15.613281 -0.0664062 -16.046875 -0.953125 -16.078125 C -1.835938 -16.109375 -2.671875 -15.734375 -3.453125 -14.953125 C -4.171875 -14.234375 -4.503906 -13.425781 -4.453125 -12.53125 C -4.410156 -11.644531 -3.984375 -10.796875 -3.171875 -9.984375 Z M -0.5 -7.3125 "/></g></g></g><g fill="#000000" fill-opacity="1"><g transform="translate(1092.263299, 220.107407)"><g><path d="M -9.34375 -11.65625 L -6.296875 -14.703125 L -9.546875 -17.953125 L -7.828125 -19.671875 L -4.578125 -16.421875 L -0.484375 -20.515625 L 1.078125 -18.953125 L -3.015625 -14.859375 L 3.21875 -8.625 C 3.570312 -8.269531 3.957031 -8.097656 4.375 -8.109375 C 4.800781 -8.128906 5.207031 -8.332031 5.59375 -8.71875 L 8.265625 -11.390625 L 9.828125 -9.828125 L 7.15625 -7.15625 C 6.25 -6.25 5.28125 -5.773438 4.25 -5.734375 C 3.226562 -5.703125 2.3125 -6.09375 1.5 -6.90625 L -4.734375 -13.140625 L -7.78125 -10.09375 Z M -9.34375 -11.65625 "/></g></g></g><g fill="#000000" fill-opacity="1"><g transform="translate(1103.713423, 208.657283)"><g><path d="M 5.625 -5.25 C 4.519531 -4.144531 3.359375 -3.484375 2.140625 -3.265625 C 0.921875 -3.046875 -0.160156 -3.304688 -1.109375 -4.046875 L 0.703125 -5.859375 C 1.160156 -5.566406 1.695312 -5.503906 2.3125 -5.671875 C 2.925781 -5.835938 3.519531 -6.207031 4.09375 -6.78125 L 4.640625 -7.328125 C 5.316406 -8.003906 5.703125 -8.675781 5.796875 -9.34375 C 5.898438 -10.019531 5.710938 -10.597656 5.234375 -11.078125 C 4.398438 -11.910156 3.304688 -11.828125 1.953125 -10.828125 L 0.15625 -9.46875 C -1.03125 -8.59375 -2.125 -8.144531 -3.125 -8.125 C -4.132812 -8.113281 -5.085938 -8.554688 -5.984375 -9.453125 C -6.921875 -10.390625 -7.3125 -11.453125 -7.15625 -12.640625 C -7.007812 -13.835938 -6.34375 -15.03125 -5.15625 -16.21875 L -4.609375 -16.765625 C -4.097656 -17.273438 -3.566406 -17.679688 -3.015625 -17.984375 C -2.460938 -18.285156 -1.898438 -18.484375 -1.328125 -18.578125 C -0.753906 -18.671875 -0.203125 -18.660156 0.328125 -18.546875 C 0.859375 -18.429688 1.359375 -18.210938 1.828125 -17.890625 L 0 -16.0625 C -0.40625 -16.320312 -0.890625 -16.375 -1.453125 -16.21875 C -2.023438 -16.070312 -2.566406 -15.742188 -3.078125 -15.234375 L -3.625 -14.6875 C -4.269531 -14.039062 -4.644531 -13.40625 -4.75 -12.78125 C -4.863281 -12.164062 -4.671875 -11.609375 -4.171875 -11.109375 C -3.765625 -10.703125 -3.328125 -10.515625 -2.859375 -10.546875 C -2.398438 -10.585938 -1.851562 -10.851562 -1.21875 -11.34375 L 0.59375 -12.6875 C 1.894531 -13.65625 3.050781 -14.148438 4.0625 -14.171875 C 5.070312 -14.191406 6.035156 -13.742188 6.953125 -12.828125 C 7.929688 -11.847656 8.351562 -10.738281 8.21875 -9.5 C 8.09375 -8.269531 7.410156 -7.035156 6.171875 -5.796875 Z M 5.625 -5.25 "/></g></g></g><g fill="#000000" fill-opacity="1"><g transform="translate(1022.659415, 587.59751)"><g><path d="M 1.671875 -14.84375 L 3.59375 -14.84375 L 3.59375 -12.65625 L 3.78125 -12.65625 C 3.851562 -13.445312 4.101562 -14.054688 4.53125 -14.484375 C 4.96875 -14.910156 5.546875 -15.125 6.265625 -15.125 C 6.984375 -15.125 7.578125 -14.910156 8.046875 -14.484375 C 8.515625 -14.054688 8.835938 -13.445312 9.015625 -12.65625 L 9.15625 -12.65625 C 9.226562 -13.445312 9.476562 -14.054688 9.90625 -14.484375 C 10.34375 -14.910156 10.921875 -15.125 11.640625 -15.125 C 12.554688 -15.125 13.265625 -14.785156 13.765625 -14.109375 C 14.273438 -13.429688 14.53125 -12.5 14.53125 -11.3125 L 14.53125 0 L 12.421875 0 L 12.421875 -11.3125 C 12.421875 -11.945312 12.28125 -12.425781 12 -12.75 C 11.71875 -13.082031 11.316406 -13.25 10.796875 -13.25 C 9.703125 -13.25 9.15625 -12.554688 9.15625 -11.171875 L 9.15625 0 L 7.046875 0 L 7.046875 -11.3125 C 7.046875 -11.832031 6.921875 -12.285156 6.671875 -12.671875 C 6.429688 -13.054688 6.015625 -13.25 5.421875 -13.25 C 4.878906 -13.25 4.457031 -13.050781 4.15625 -12.65625 C 3.90625 -12.300781 3.78125 -11.804688 3.78125 -11.171875 L 3.78125 0 L 1.671875 0 Z M 1.671875 -14.84375 "/></g></g></g><g fill="#000000" fill-opacity="1"><g transform="translate(1038.852335, 587.59751)"><g><path d="M 8.09375 0.265625 C 6.238281 0.265625 4.785156 -0.234375 3.734375 -1.234375 C 2.679688 -2.242188 2.15625 -3.632812 2.15625 -5.40625 L 2.15625 -9.453125 C 2.15625 -11.210938 2.679688 -12.597656 3.734375 -13.609375 C 4.785156 -14.617188 6.238281 -15.125 8.09375 -15.125 C 9.945312 -15.125 11.398438 -14.617188 12.453125 -13.609375 C 13.515625 -12.597656 14.046875 -11.210938 14.046875 -9.453125 L 14.046875 -6.71875 L 4.59375 -6.71875 L 4.59375 -5.53125 C 4.59375 -4.394531 4.898438 -3.503906 5.515625 -2.859375 C 6.140625 -2.210938 7 -1.890625 8.09375 -1.890625 C 8.90625 -1.890625 9.609375 -2.015625 10.203125 -2.265625 C 10.796875 -2.515625 11.238281 -2.882812 11.53125 -3.375 L 13.953125 -3.375 C 13.648438 -2.238281 12.972656 -1.347656 11.921875 -0.703125 C 10.867188 -0.0546875 9.59375 0.265625 8.09375 0.265625 Z M 11.609375 -8.75 L 11.609375 -9.453125 C 11.609375 -10.566406 11.300781 -11.425781 10.6875 -12.03125 C 10.082031 -12.644531 9.21875 -12.953125 8.09375 -12.953125 C 6.976562 -12.953125 6.113281 -12.644531 5.5 -12.03125 C 4.894531 -11.425781 4.59375 -10.566406 4.59375 -9.453125 L 4.59375 -8.75 Z M 11.609375 -8.75 "/></g></g></g><g fill="#000000" fill-opacity="1"><g transform="translate(1055.045255, 587.59751)"><g><path d="M 3.03125 -14.84375 L 5.3125 -14.84375 L 5.3125 -12.28125 L 5.53125 -12.28125 C 5.769531 -13.164062 6.253906 -13.859375 6.984375 -14.359375 C 7.722656 -14.867188 8.632812 -15.125 9.71875 -15.125 C 11.28125 -15.125 12.503906 -14.628906 13.390625 -13.640625 C 14.285156 -12.660156 14.734375 -11.316406 14.734375 -9.609375 L 14.734375 -8.78125 L 12.3125 -8.78125 L 12.3125 -9.3125 C 12.3125 -10.476562 12.019531 -11.378906 11.4375 -12.015625 C 10.851562 -12.660156 10.019531 -12.984375 8.9375 -12.984375 C 7.875 -12.984375 7.023438 -12.65625 6.390625 -12 C 5.765625 -11.34375 5.453125 -10.445312 5.453125 -9.3125 L 5.453125 0 L 3.03125 0 Z M 3.03125 -14.84375 "/></g></g></g><g fill="#000000" fill-opacity="1"><g transform="translate(1071.238175, 587.59751)"><g><path d="M 1.96875 -9.453125 C 1.96875 -10.316406 2.082031 -11.097656 2.3125 -11.796875 C 2.550781 -12.503906 2.890625 -13.097656 3.328125 -13.578125 C 3.773438 -14.066406 4.3125 -14.445312 4.9375 -14.71875 C 5.570312 -14.988281 6.273438 -15.125 7.046875 -15.125 C 8.128906 -15.125 9.046875 -14.863281 9.796875 -14.34375 C 10.554688 -13.832031 11.070312 -13.101562 11.34375 -12.15625 L 11.53125 -12.15625 L 11.53125 -14.84375 L 13.828125 -14.84375 L 13.828125 -1.078125 C 13.828125 0.660156 13.3125 2.015625 12.28125 2.984375 C 11.257812 3.960938 9.820312 4.453125 7.96875 4.453125 L 4.3125 4.453125 L 4.3125 2.234375 L 7.96875 2.234375 C 9.039062 2.234375 9.878906 1.945312 10.484375 1.375 C 11.085938 0.800781 11.390625 -0.015625 11.390625 -1.078125 L 11.390625 -1.625 L 11.5 -4.3125 L 11.34375 -4.3125 C 11.070312 -3.363281 10.554688 -2.628906 9.796875 -2.109375 C 9.046875 -1.597656 8.128906 -1.34375 7.046875 -1.34375 C 6.273438 -1.34375 5.578125 -1.476562 4.953125 -1.75 C 4.328125 -2.019531 3.796875 -2.398438 3.359375 -2.890625 C 2.921875 -3.378906 2.578125 -3.972656 2.328125 -4.671875 C 2.085938 -5.367188 1.96875 -6.148438 1.96875 -7.015625 Z M 4.453125 -7.015625 C 4.453125 -5.898438 4.757812 -5.023438 5.375 -4.390625 C 6 -3.765625 6.851562 -3.453125 7.9375 -3.453125 C 9.019531 -3.453125 9.863281 -3.765625 10.46875 -4.390625 C 11.082031 -5.023438 11.390625 -5.898438 11.390625 -7.015625 L 11.390625 -9.453125 C 11.390625 -10.566406 11.082031 -11.4375 10.46875 -12.0625 C 9.863281 -12.695312 9.019531 -13.015625 7.9375 -13.015625 C 6.851562 -13.015625 6 -12.695312 5.375 -12.0625 C 4.757812 -11.4375 4.453125 -10.566406 4.453125 -9.453125 Z M 4.453125 -7.015625 "/></g></g></g><g fill="#000000" fill-opacity="1"><g transform="translate(1087.431095, 587.59751)"><g><path d="M 8.09375 0.265625 C 6.238281 0.265625 4.785156 -0.234375 3.734375 -1.234375 C 2.679688 -2.242188 2.15625 -3.632812 2.15625 -5.40625 L 2.15625 -9.453125 C 2.15625 -11.210938 2.679688 -12.597656 3.734375 -13.609375 C 4.785156 -14.617188 6.238281 -15.125 8.09375 -15.125 C 9.945312 -15.125 11.398438 -14.617188 12.453125 -13.609375 C 13.515625 -12.597656 14.046875 -11.210938 14.046875 -9.453125 L 14.046875 -6.71875 L 4.59375 -6.71875 L 4.59375 -5.53125 C 4.59375 -4.394531 4.898438 -3.503906 5.515625 -2.859375 C 6.140625 -2.210938 7 -1.890625 8.09375 -1.890625 C 8.90625 -1.890625 9.609375 -2.015625 10.203125 -2.265625 C 10.796875 -2.515625 11.238281 -2.882812 11.53125 -3.375 L 13.953125 -3.375 C 13.648438 -2.238281 12.972656 -1.347656 11.921875 -0.703125 C 10.867188 -0.0546875 9.59375 0.265625 8.09375 0.265625 Z M 11.609375 -8.75 L 11.609375 -9.453125 C 11.609375 -10.566406 11.300781 -11.425781 10.6875 -12.03125 C 10.082031 -12.644531 9.21875 -12.953125 8.09375 -12.953125 C 6.976562 -12.953125 6.113281 -12.644531 5.5 -12.03125 C 4.894531 -11.425781 4.59375 -10.566406 4.59375 -9.453125 L 4.59375 -8.75 Z M 11.609375 -8.75 "/></g></g></g><g fill="#000000" fill-opacity="1"><g transform="translate(1103.624015, 587.59751)"><g/></g></g><g fill="#000000" fill-opacity="1"><g transform="translate(1119.816935, 587.59751)"><g><path d="M 3.03125 -14.84375 L 5.3125 -14.84375 L 5.3125 -12.28125 L 5.53125 -12.28125 C 5.769531 -13.164062 6.253906 -13.859375 6.984375 -14.359375 C 7.722656 -14.867188 8.632812 -15.125 9.71875 -15.125 C 11.28125 -15.125 12.503906 -14.628906 13.390625 -13.640625 C 14.285156 -12.660156 14.734375 -11.316406 14.734375 -9.609375 L 14.734375 -8.78125 L 12.3125 -8.78125 L 12.3125 -9.3125 C 12.3125 -10.476562 12.019531 -11.378906 11.4375 -12.015625 C 10.851562 -12.660156 10.019531 -12.984375 8.9375 -12.984375 C 7.875 -12.984375 7.023438 -12.65625 6.390625 -12 C 5.765625 -11.34375 5.453125 -10.445312 5.453125 -9.3125 L 5.453125 0 L 3.03125 0 Z M 3.03125 -14.84375 "/></g></g></g><g fill="#000000" fill-opacity="1"><g transform="translate(1136.009855, 587.59751)"><g><path d="M 8.09375 0.265625 C 6.238281 0.265625 4.785156 -0.234375 3.734375 -1.234375 C 2.679688 -2.242188 2.15625 -3.632812 2.15625 -5.40625 L 2.15625 -9.453125 C 2.15625 -11.210938 2.679688 -12.597656 3.734375 -13.609375 C 4.785156 -14.617188 6.238281 -15.125 8.09375 -15.125 C 9.945312 -15.125 11.398438 -14.617188 12.453125 -13.609375 C 13.515625 -12.597656 14.046875 -11.210938 14.046875 -9.453125 L 14.046875 -6.71875 L 4.59375 -6.71875 L 4.59375 -5.53125 C 4.59375 -4.394531 4.898438 -3.503906 5.515625 -2.859375 C 6.140625 -2.210938 7 -1.890625 8.09375 -1.890625 C 8.90625 -1.890625 9.609375 -2.015625 10.203125 -2.265625 C 10.796875 -2.515625 11.238281 -2.882812 11.53125 -3.375 L 13.953125 -3.375 C 13.648438 -2.238281 12.972656 -1.347656 11.921875 -0.703125 C 10.867188 -0.0546875 9.59375 0.265625 8.09375 0.265625 Z M 11.609375 -8.75 L 11.609375 -9.453125 C 11.609375 -10.566406 11.300781 -11.425781 10.6875 -12.03125 C 10.082031 -12.644531 9.21875 -12.953125 8.09375 -12.953125 C 6.976562 -12.953125 6.113281 -12.644531 5.5 -12.03125 C 4.894531 -11.425781 4.59375 -10.566406 4.59375 -9.453125 L 4.59375 -8.75 Z M 11.609375 -8.75 "/></g></g></g><g fill="#000000" fill-opacity="1"><g transform="translate(1152.202775, 587.59751)"><g><path d="M 8.421875 -19.703125 L 8.421875 -4.3125 C 8.421875 -3.65625 8.597656 -3.140625 8.953125 -2.765625 C 9.316406 -2.398438 9.816406 -2.21875 10.453125 -2.21875 L 14.84375 -2.21875 L 14.84375 0 L 10.453125 0 C 9.066406 0 7.976562 -0.378906 7.1875 -1.140625 C 6.394531 -1.910156 6 -2.96875 6 -4.3125 L 6 -17.5 L 1.078125 -17.5 L 1.078125 -19.703125 Z M 8.421875 -19.703125 "/></g></g></g><g fill="#000000" fill-opacity="1"><g transform="translate(1168.395694, 587.59751)"><g><path d="M 8.09375 0.265625 C 6.238281 0.265625 4.785156 -0.234375 3.734375 -1.234375 C 2.679688 -2.242188 2.15625 -3.632812 2.15625 -5.40625 L 2.15625 -9.453125 C 2.15625 -11.210938 2.679688 -12.597656 3.734375 -13.609375 C 4.785156 -14.617188 6.238281 -15.125 8.09375 -15.125 C 9.945312 -15.125 11.398438 -14.617188 12.453125 -13.609375 C 13.515625 -12.597656 14.046875 -11.210938 14.046875 -9.453125 L 14.046875 -6.71875 L 4.59375 -6.71875 L 4.59375 -5.53125 C 4.59375 -4.394531 4.898438 -3.503906 5.515625 -2.859375 C 6.140625 -2.210938 7 -1.890625 8.09375 -1.890625 C 8.90625 -1.890625 9.609375 -2.015625 10.203125 -2.265625 C 10.796875 -2.515625 11.238281 -2.882812 11.53125 -3.375 L 13.953125 -3.375 C 13.648438 -2.238281 12.972656 -1.347656 11.921875 -0.703125 C 10.867188 -0.0546875 9.59375 0.265625 8.09375 0.265625 Z M 11.609375 -8.75 L 11.609375 -9.453125 C 11.609375 -10.566406 11.300781 -11.425781 10.6875 -12.03125 C 10.082031 -12.644531 9.21875 -12.953125 8.09375 -12.953125 C 6.976562 -12.953125 6.113281 -12.644531 5.5 -12.03125 C 4.894531 -11.425781 4.59375 -10.566406 4.59375 -9.453125 L 4.59375 -8.75 Z M 11.609375 -8.75 "/></g></g></g><g fill="#000000" fill-opacity="1"><g transform="translate(1184.588614, 587.59751)"><g><path d="M 1.703125 -4.3125 C 1.703125 -5.019531 1.820312 -5.65625 2.0625 -6.21875 C 2.3125 -6.789062 2.664062 -7.273438 3.125 -7.671875 C 3.582031 -8.066406 4.132812 -8.367188 4.78125 -8.578125 C 5.425781 -8.796875 6.15625 -8.90625 6.96875 -8.90625 L 11.390625 -8.90625 L 11.390625 -10.125 C 11.390625 -11.039062 11.085938 -11.753906 10.484375 -12.265625 C 9.878906 -12.785156 9.015625 -13.046875 7.890625 -13.046875 C 7.054688 -13.046875 6.347656 -12.890625 5.765625 -12.578125 C 5.179688 -12.273438 4.789062 -11.851562 4.59375 -11.3125 L 2.15625 -11.3125 C 2.40625 -12.476562 3.046875 -13.40625 4.078125 -14.09375 C 5.117188 -14.78125 6.40625 -15.125 7.9375 -15.125 C 9.769531 -15.125 11.207031 -14.695312 12.25 -13.84375 C 13.300781 -12.988281 13.828125 -11.796875 13.828125 -10.265625 L 13.828125 0 L 11.609375 0 L 11.609375 -2.828125 L 11.390625 -2.828125 C 11.160156 -1.878906 10.613281 -1.125 9.75 -0.5625 C 8.882812 -0.0078125 7.832031 0.265625 6.59375 0.265625 C 5.09375 0.265625 3.898438 -0.144531 3.015625 -0.96875 C 2.140625 -1.800781 1.703125 -2.914062 1.703125 -4.3125 Z M 7.125 -1.734375 C 7.738281 -1.734375 8.304688 -1.8125 8.828125 -1.96875 C 9.347656 -2.132812 9.796875 -2.363281 10.171875 -2.65625 C 10.554688 -2.957031 10.851562 -3.304688 11.0625 -3.703125 C 11.28125 -4.097656 11.390625 -4.53125 11.390625 -5 L 11.390625 -7.015625 L 7.015625 -7.015625 C 6.117188 -7.015625 5.410156 -6.78125 4.890625 -6.3125 C 4.378906 -5.84375 4.125 -5.195312 4.125 -4.375 C 4.125 -3.539062 4.382812 -2.890625 4.90625 -2.421875 C 5.4375 -1.960938 6.175781 -1.734375 7.125 -1.734375 Z M 7.125 -1.734375 "/></g></g></g><g fill="#000000" fill-opacity="1"><g transform="translate(1200.781534, 587.59751)"><g><path d="M 7.6875 0.265625 C 6.125 0.265625 4.832031 -0.0859375 3.8125 -0.796875 C 2.800781 -1.503906 2.222656 -2.453125 2.078125 -3.640625 L 4.640625 -3.640625 C 4.753906 -3.117188 5.085938 -2.695312 5.640625 -2.375 C 6.203125 -2.050781 6.882812 -1.890625 7.6875 -1.890625 L 8.453125 -1.890625 C 9.421875 -1.890625 10.175781 -2.09375 10.71875 -2.5 C 11.257812 -2.90625 11.53125 -3.445312 11.53125 -4.125 C 11.53125 -5.300781 10.703125 -6.015625 9.046875 -6.265625 L 6.796875 -6.59375 C 5.335938 -6.800781 4.25 -7.253906 3.53125 -7.953125 C 2.8125 -8.660156 2.453125 -9.644531 2.453125 -10.90625 C 2.453125 -12.238281 2.925781 -13.273438 3.875 -14.015625 C 4.820312 -14.753906 6.140625 -15.125 7.828125 -15.125 L 8.59375 -15.125 C 9.3125 -15.125 9.972656 -15.03125 10.578125 -14.84375 C 11.191406 -14.664062 11.734375 -14.410156 12.203125 -14.078125 C 12.671875 -13.742188 13.050781 -13.347656 13.34375 -12.890625 C 13.644531 -12.429688 13.84375 -11.921875 13.9375 -11.359375 L 11.359375 -11.359375 C 11.253906 -11.828125 10.945312 -12.207031 10.4375 -12.5 C 9.9375 -12.800781 9.320312 -12.953125 8.59375 -12.953125 L 7.828125 -12.953125 C 6.910156 -12.953125 6.191406 -12.769531 5.671875 -12.40625 C 5.160156 -12.050781 4.90625 -11.515625 4.90625 -10.796875 C 4.90625 -10.222656 5.082031 -9.785156 5.4375 -9.484375 C 5.789062 -9.191406 6.363281 -8.992188 7.15625 -8.890625 L 9.390625 -8.5625 C 10.992188 -8.320312 12.160156 -7.851562 12.890625 -7.15625 C 13.617188 -6.457031 13.984375 -5.457031 13.984375 -4.15625 C 13.984375 -2.769531 13.5 -1.6875 12.53125 -0.90625 C 11.570312 -0.125 10.210938 0.265625 8.453125 0.265625 Z M 7.6875 0.265625 "/></g></g></g><g fill="#000000" fill-opacity="1"><g transform="translate(1216.974454, 587.59751)"><g><path d="M 8.09375 0.265625 C 6.238281 0.265625 4.785156 -0.234375 3.734375 -1.234375 C 2.679688 -2.242188 2.15625 -3.632812 2.15625 -5.40625 L 2.15625 -9.453125 C 2.15625 -11.210938 2.679688 -12.597656 3.734375 -13.609375 C 4.785156 -14.617188 6.238281 -15.125 8.09375 -15.125 C 9.945312 -15.125 11.398438 -14.617188 12.453125 -13.609375 C 13.515625 -12.597656 14.046875 -11.210938 14.046875 -9.453125 L 14.046875 -6.71875 L 4.59375 -6.71875 L 4.59375 -5.53125 C 4.59375 -4.394531 4.898438 -3.503906 5.515625 -2.859375 C 6.140625 -2.210938 7 -1.890625 8.09375 -1.890625 C 8.90625 -1.890625 9.609375 -2.015625 10.203125 -2.265625 C 10.796875 -2.515625 11.238281 -2.882812 11.53125 -3.375 L 13.953125 -3.375 C 13.648438 -2.238281 12.972656 -1.347656 11.921875 -0.703125 C 10.867188 -0.0546875 9.59375 0.265625 8.09375 0.265625 Z M 11.609375 -8.75 L 11.609375 -9.453125 C 11.609375 -10.566406 11.300781 -11.425781 10.6875 -12.03125 C 10.082031 -12.644531 9.21875 -12.953125 8.09375 -12.953125 C 6.976562 -12.953125 6.113281 -12.644531 5.5 -12.03125 C 4.894531 -11.425781 4.59375 -10.566406 4.59375 -9.453125 L 4.59375 -8.75 Z M 11.609375 -8.75 "/></g></g></g><g fill="#000000" fill-opacity="1"><g transform="translate(1233.167385, 587.59751)"><g><path d="M 11.609375 -22.40625 L 14.171875 -22.40625 L 4.59375 2.96875 L 2.03125 2.96875 Z M 11.609375 -22.40625 "/></g></g></g><g fill="#000000" fill-opacity="1"><g transform="translate(1249.360317, 587.59751)"><g><path d="M 1.34375 -14.84375 L 3.921875 -14.84375 L 7.53125 -4.34375 C 7.675781 -3.925781 7.785156 -3.5625 7.859375 -3.25 C 7.929688 -2.9375 7.984375 -2.671875 8.015625 -2.453125 C 8.054688 -2.179688 8.078125 -1.945312 8.078125 -1.75 L 8.3125 -1.75 C 8.289062 -1.945312 8.300781 -2.179688 8.34375 -2.453125 C 8.375 -2.671875 8.414062 -2.9375 8.46875 -3.25 C 8.53125 -3.5625 8.632812 -3.925781 8.78125 -4.34375 L 12.203125 -14.84375 L 14.84375 -14.84375 L 9.53125 0 L 6.78125 0 Z M 1.34375 -14.84375 "/></g></g></g><g fill="#000000" fill-opacity="1"><g transform="translate(1265.553248, 587.59751)"><g><path d="M 2.4375 -2.15625 L 7.640625 -2.15625 L 7.640625 -15.796875 C 7.640625 -15.941406 7.644531 -16.109375 7.65625 -16.296875 C 7.664062 -16.484375 7.671875 -16.65625 7.671875 -16.8125 C 7.671875 -16.976562 7.671875 -17.117188 7.671875 -17.234375 C 7.679688 -17.359375 7.6875 -17.421875 7.6875 -17.421875 L 7.640625 -17.421875 C 7.515625 -17.304688 7.390625 -17.207031 7.265625 -17.125 C 7.148438 -17.03125 7.035156 -16.9375 6.921875 -16.84375 C 6.804688 -16.757812 6.695312 -16.679688 6.59375 -16.609375 L 2.78125 -14.015625 L 2.78125 -16.46875 L 6.96875 -19.4375 L 10.078125 -19.4375 L 10.078125 -2.15625 L 14.4375 -2.15625 L 14.4375 0 L 2.4375 0 Z M 2.4375 -2.15625 "/></g></g></g><g fill="#000000" fill-opacity="1"><g transform="translate(1281.746179, 587.59751)"><g><path d="M 5.78125 -2.140625 C 5.78125 -2.835938 5.988281 -3.394531 6.40625 -3.8125 C 6.832031 -4.238281 7.394531 -4.453125 8.09375 -4.453125 C 8.800781 -4.453125 9.363281 -4.238281 9.78125 -3.8125 C 10.207031 -3.394531 10.421875 -2.835938 10.421875 -2.140625 C 10.421875 -1.410156 10.207031 -0.828125 9.78125 -0.390625 C 9.363281 0.046875 8.800781 0.265625 8.09375 0.265625 C 7.394531 0.265625 6.832031 0.046875 6.40625 -0.390625 C 5.988281 -0.828125 5.78125 -1.410156 5.78125 -2.140625 Z M 5.78125 -2.140625 "/></g></g></g><g fill="#000000" fill-opacity="1"><g transform="translate(1297.93911, 587.59751)"><g><path d="M 6.75 -10.9375 C 6.75 -11.382812 6.867188 -11.742188 7.109375 -12.015625 C 7.359375 -12.285156 7.6875 -12.421875 8.09375 -12.421875 C 8.507812 -12.421875 8.835938 -12.285156 9.078125 -12.015625 C 9.328125 -11.742188 9.453125 -11.382812 9.453125 -10.9375 L 9.453125 -8.234375 C 9.453125 -7.785156 9.328125 -7.425781 9.078125 -7.15625 C 8.835938 -6.882812 8.507812 -6.75 8.09375 -6.75 C 7.6875 -6.75 7.359375 -6.882812 7.109375 -7.15625 C 6.867188 -7.425781 6.75 -7.785156 6.75 -8.234375 Z M 4.59375 -5.53125 C 4.59375 -4.414062 4.90625 -3.53125 5.53125 -2.875 C 6.164062 -2.21875 7.019531 -1.890625 8.09375 -1.890625 C 9.175781 -1.890625 10.03125 -2.21875 10.65625 -2.875 C 11.289062 -3.53125 11.609375 -4.414062 11.609375 -5.53125 L 11.609375 -13.90625 C 11.609375 -15.019531 11.289062 -15.90625 10.65625 -16.5625 C 10.03125 -17.21875 9.175781 -17.546875 8.09375 -17.546875 C 7.019531 -17.546875 6.164062 -17.21875 5.53125 -16.5625 C 4.90625 -15.90625 4.59375 -15.019531 4.59375 -13.90625 Z M 2.15625 -5.53125 L 2.15625 -13.90625 C 2.15625 -14.789062 2.296875 -15.59375 2.578125 -16.3125 C 2.859375 -17.03125 3.253906 -17.640625 3.765625 -18.140625 C 4.273438 -18.648438 4.894531 -19.035156 5.625 -19.296875 C 6.351562 -19.566406 7.175781 -19.703125 8.09375 -19.703125 C 9.019531 -19.703125 9.84375 -19.566406 10.5625 -19.296875 C 11.289062 -19.035156 11.910156 -18.648438 12.421875 -18.140625 C 12.941406 -17.640625 13.34375 -17.03125 13.625 -16.3125 C 13.90625 -15.59375 14.046875 -14.789062 14.046875 -13.90625 L 14.046875 -5.53125 C 14.046875 -4.65625 13.90625 -3.859375 13.625 -3.140625 C 13.34375 -2.429688 12.941406 -1.820312 12.421875 -1.3125 C 11.910156 -0.8125 11.285156 -0.421875 10.546875 -0.140625 C 9.816406 0.128906 9 0.265625 8.09375 0.265625 C 7.175781 0.265625 6.351562 0.128906 5.625 -0.140625 C 4.894531 -0.410156 4.273438 -0.796875 3.765625 -1.296875 C 3.253906 -1.796875 2.859375 -2.40625 2.578125 -3.125 C 2.296875 -3.851562 2.15625 -4.65625 2.15625 -5.53125 Z M 2.15625 -5.53125 "/></g></g></g><g fill="#000000" fill-opacity="1"><g transform="translate(1314.132041, 587.59751)"><g><path d="M 5.78125 -2.140625 C 5.78125 -2.835938 5.988281 -3.394531 6.40625 -3.8125 C 6.832031 -4.238281 7.394531 -4.453125 8.09375 -4.453125 C 8.800781 -4.453125 9.363281 -4.238281 9.78125 -3.8125 C 10.207031 -3.394531 10.421875 -2.835938 10.421875 -2.140625 C 10.421875 -1.410156 10.207031 -0.828125 9.78125 -0.390625 C 9.363281 0.046875 8.800781 0.265625 8.09375 0.265625 C 7.394531 0.265625 6.832031 0.046875 6.40625 -0.390625 C 5.988281 -0.828125 5.78125 -1.410156 5.78125 -2.140625 Z M 5.78125 -2.140625 "/></g></g></g><g fill="#000000" fill-opacity="1"><g transform="translate(1330.324973, 587.59751)"><g><path d="M 6.75 -10.9375 C 6.75 -11.382812 6.867188 -11.742188 7.109375 -12.015625 C 7.359375 -12.285156 7.6875 -12.421875 8.09375 -12.421875 C 8.507812 -12.421875 8.835938 -12.285156 9.078125 -12.015625 C 9.328125 -11.742188 9.453125 -11.382812 9.453125 -10.9375 L 9.453125 -8.234375 C 9.453125 -7.785156 9.328125 -7.425781 9.078125 -7.15625 C 8.835938 -6.882812 8.507812 -6.75 8.09375 -6.75 C 7.6875 -6.75 7.359375 -6.882812 7.109375 -7.15625 C 6.867188 -7.425781 6.75 -7.785156 6.75 -8.234375 Z M 4.59375 -5.53125 C 4.59375 -4.414062 4.90625 -3.53125 5.53125 -2.875 C 6.164062 -2.21875 7.019531 -1.890625 8.09375 -1.890625 C 9.175781 -1.890625 10.03125 -2.21875 10.65625 -2.875 C 11.289062 -3.53125 11.609375 -4.414062 11.609375 -5.53125 L 11.609375 -13.90625 C 11.609375 -15.019531 11.289062 -15.90625 10.65625 -16.5625 C 10.03125 -17.21875 9.175781 -17.546875 8.09375 -17.546875 C 7.019531 -17.546875 6.164062 -17.21875 5.53125 -16.5625 C 4.90625 -15.90625 4.59375 -15.019531 4.59375 -13.90625 Z M 2.15625 -5.53125 L 2.15625 -13.90625 C 2.15625 -14.789062 2.296875 -15.59375 2.578125 -16.3125 C 2.859375 -17.03125 3.253906 -17.640625 3.765625 -18.140625 C 4.273438 -18.648438 4.894531 -19.035156 5.625 -19.296875 C 6.351562 -19.566406 7.175781 -19.703125 8.09375 -19.703125 C 9.019531 -19.703125 9.84375 -19.566406 10.5625 -19.296875 C 11.289062 -19.035156 11.910156 -18.648438 12.421875 -18.140625 C 12.941406 -17.640625 13.34375 -17.03125 13.625 -16.3125 C 13.90625 -15.59375 14.046875 -14.789062 14.046875 -13.90625 L 14.046875 -5.53125 C 14.046875 -4.65625 13.90625 -3.859375 13.625 -3.140625 C 13.34375 -2.429688 12.941406 -1.820312 12.421875 -1.3125 C 11.910156 -0.8125 11.285156 -0.421875 10.546875 -0.140625 C 9.816406 0.128906 9 0.265625 8.09375 0.265625 C 7.175781 0.265625 6.351562 0.128906 5.625 -0.140625 C 4.894531 -0.410156 4.273438 -0.796875 3.765625 -1.296875 C 3.253906 -1.796875 2.859375 -2.40625 2.578125 -3.125 C 2.296875 -3.851562 2.15625 -4.65625 2.15625 -5.53125 Z M 2.15625 -5.53125 "/></g></g></g><g fill="#000000" fill-opacity="1"><g transform="translate(1111.721911, 625.097509)"><g><path d="M 2.5625 0 L 2.5625 -2.21875 L 7.96875 -2.21875 L 7.96875 -12.640625 L 3.234375 -12.640625 L 3.234375 -14.84375 L 10.390625 -14.84375 L 10.390625 -2.21875 L 14.84375 -2.21875 L 14.84375 0 Z M 8.5 -20.65625 L 9.046875 -20.65625 C 9.566406 -20.65625 9.988281 -20.5 10.3125 -20.1875 C 10.632812 -19.882812 10.796875 -19.492188 10.796875 -19.015625 C 10.796875 -18.523438 10.632812 -18.132812 10.3125 -17.84375 C 9.988281 -17.5625 9.566406 -17.421875 9.046875 -17.421875 L 8.5 -17.421875 C 7.976562 -17.421875 7.554688 -17.554688 7.234375 -17.828125 C 6.910156 -18.109375 6.75 -18.503906 6.75 -19.015625 C 6.75 -19.492188 6.910156 -19.882812 7.234375 -20.1875 C 7.554688 -20.5 7.976562 -20.65625 8.5 -20.65625 Z M 8.5 -20.65625 "/></g></g></g><g fill="#000000" fill-opacity="1"><g transform="translate(1127.91483, 625.097509)"><g><path d="M 2.375 0 L 2.375 -14.84375 L 4.671875 -14.84375 L 4.671875 -12.28125 L 4.890625 -12.28125 C 5.117188 -13.1875 5.585938 -13.882812 6.296875 -14.375 C 7.015625 -14.875 7.90625 -15.125 8.96875 -15.125 C 9.707031 -15.125 10.375 -14.992188 10.96875 -14.734375 C 11.570312 -14.484375 12.085938 -14.128906 12.515625 -13.671875 C 12.941406 -13.210938 13.269531 -12.660156 13.5 -12.015625 C 13.726562 -11.378906 13.84375 -10.664062 13.84375 -9.875 L 13.84375 0 L 11.421875 0 L 11.421875 -9.484375 C 11.421875 -10.609375 11.128906 -11.484375 10.546875 -12.109375 C 9.972656 -12.742188 9.175781 -13.0625 8.15625 -13.0625 C 7.125 -13.0625 6.304688 -12.722656 5.703125 -12.046875 C 5.109375 -11.378906 4.8125 -10.46875 4.8125 -9.3125 L 4.8125 0 Z M 2.375 0 "/></g></g></g><g fill="#000000" fill-opacity="1"><g transform="translate(1144.10775, 625.097509)"><g><path d="M 1.625 -14.84375 L 5.9375 -14.84375 L 5.9375 -19.4375 L 8.375 -19.4375 L 8.375 -14.84375 L 14.171875 -14.84375 L 14.171875 -12.640625 L 8.375 -12.640625 L 8.375 -3.828125 C 8.375 -3.328125 8.53125 -2.929688 8.84375 -2.640625 C 9.15625 -2.359375 9.582031 -2.21875 10.125 -2.21875 L 13.90625 -2.21875 L 13.90625 0 L 10.125 0 C 8.84375 0 7.820312 -0.347656 7.0625 -1.046875 C 6.3125 -1.753906 5.9375 -2.679688 5.9375 -3.828125 L 5.9375 -12.640625 L 1.625 -12.640625 Z M 1.625 -14.84375 "/></g></g></g><g fill="#000000" fill-opacity="1"><g transform="translate(1160.30067, 625.097509)"><g><path d="M 4.59375 -5.53125 C 4.59375 -4.394531 4.898438 -3.503906 5.515625 -2.859375 C 6.140625 -2.210938 7 -1.890625 8.09375 -1.890625 C 9.175781 -1.890625 10.03125 -2.210938 10.65625 -2.859375 C 11.289062 -3.503906 11.609375 -4.394531 11.609375 -5.53125 L 11.609375 -9.3125 C 11.609375 -10.445312 11.289062 -11.335938 10.65625 -11.984375 C 10.03125 -12.628906 9.175781 -12.953125 8.09375 -12.953125 C 7.019531 -12.953125 6.164062 -12.628906 5.53125 -11.984375 C 4.90625 -11.335938 4.59375 -10.445312 4.59375 -9.3125 Z M 2.15625 -9.3125 C 2.15625 -10.21875 2.296875 -11.023438 2.578125 -11.734375 C 2.859375 -12.441406 3.253906 -13.046875 3.765625 -13.546875 C 4.273438 -14.054688 4.894531 -14.445312 5.625 -14.71875 C 6.351562 -14.988281 7.175781 -15.125 8.09375 -15.125 C 9.9375 -15.125 11.390625 -14.609375 12.453125 -13.578125 C 13.515625 -12.554688 14.046875 -11.144531 14.046875 -9.34375 L 14.046875 -5.53125 C 14.046875 -4.632812 13.910156 -3.828125 13.640625 -3.109375 C 13.367188 -2.390625 12.972656 -1.78125 12.453125 -1.28125 C 11.941406 -0.789062 11.316406 -0.410156 10.578125 -0.140625 C 9.847656 0.128906 9.019531 0.265625 8.09375 0.265625 C 7.175781 0.265625 6.351562 0.128906 5.625 -0.140625 C 4.894531 -0.410156 4.273438 -0.796875 3.765625 -1.296875 C 3.253906 -1.796875 2.859375 -2.40625 2.578125 -3.125 C 2.296875 -3.851562 2.15625 -4.65625 2.15625 -5.53125 Z M 2.15625 -9.3125 "/></g></g></g><g fill="#000000" fill-opacity="1"><g transform="translate(1176.49359, 625.097509)"><g/></g></g><g fill="#000000" fill-opacity="1"><g transform="translate(1192.68651, 625.097509)"><g><path d="M 1.671875 -14.84375 L 3.59375 -14.84375 L 3.59375 -12.65625 L 3.78125 -12.65625 C 3.851562 -13.445312 4.101562 -14.054688 4.53125 -14.484375 C 4.96875 -14.910156 5.546875 -15.125 6.265625 -15.125 C 6.984375 -15.125 7.578125 -14.910156 8.046875 -14.484375 C 8.515625 -14.054688 8.835938 -13.445312 9.015625 -12.65625 L 9.15625 -12.65625 C 9.226562 -13.445312 9.476562 -14.054688 9.90625 -14.484375 C 10.34375 -14.910156 10.921875 -15.125 11.640625 -15.125 C 12.554688 -15.125 13.265625 -14.785156 13.765625 -14.109375 C 14.273438 -13.429688 14.53125 -12.5 14.53125 -11.3125 L 14.53125 0 L 12.421875 0 L 12.421875 -11.3125 C 12.421875 -11.945312 12.28125 -12.425781 12 -12.75 C 11.71875 -13.082031 11.316406 -13.25 10.796875 -13.25 C 9.703125 -13.25 9.15625 -12.554688 9.15625 -11.171875 L 9.15625 0 L 7.046875 0 L 7.046875 -11.3125 C 7.046875 -11.832031 6.921875 -12.285156 6.671875 -12.671875 C 6.429688 -13.054688 6.015625 -13.25 5.421875 -13.25 C 4.878906 -13.25 4.457031 -13.050781 4.15625 -12.65625 C 3.90625 -12.300781 3.78125 -11.804688 3.78125 -11.171875 L 3.78125 0 L 1.671875 0 Z M 1.671875 -14.84375 "/></g></g></g><g fill="#000000" fill-opacity="1"><g transform="translate(1208.87943, 625.097509)"><g><path d="M 1.703125 -4.3125 C 1.703125 -5.019531 1.820312 -5.65625 2.0625 -6.21875 C 2.3125 -6.789062 2.664062 -7.273438 3.125 -7.671875 C 3.582031 -8.066406 4.132812 -8.367188 4.78125 -8.578125 C 5.425781 -8.796875 6.15625 -8.90625 6.96875 -8.90625 L 11.390625 -8.90625 L 11.390625 -10.125 C 11.390625 -11.039062 11.085938 -11.753906 10.484375 -12.265625 C 9.878906 -12.785156 9.015625 -13.046875 7.890625 -13.046875 C 7.054688 -13.046875 6.347656 -12.890625 5.765625 -12.578125 C 5.179688 -12.273438 4.789062 -11.851562 4.59375 -11.3125 L 2.15625 -11.3125 C 2.40625 -12.476562 3.046875 -13.40625 4.078125 -14.09375 C 5.117188 -14.78125 6.40625 -15.125 7.9375 -15.125 C 9.769531 -15.125 11.207031 -14.695312 12.25 -13.84375 C 13.300781 -12.988281 13.828125 -11.796875 13.828125 -10.265625 L 13.828125 0 L 11.609375 0 L 11.609375 -2.828125 L 11.390625 -2.828125 C 11.160156 -1.878906 10.613281 -1.125 9.75 -0.5625 C 8.882812 -0.0078125 7.832031 0.265625 6.59375 0.265625 C 5.09375 0.265625 3.898438 -0.144531 3.015625 -0.96875 C 2.140625 -1.800781 1.703125 -2.914062 1.703125 -4.3125 Z M 7.125 -1.734375 C 7.738281 -1.734375 8.304688 -1.8125 8.828125 -1.96875 C 9.347656 -2.132812 9.796875 -2.363281 10.171875 -2.65625 C 10.554688 -2.957031 10.851562 -3.304688 11.0625 -3.703125 C 11.28125 -4.097656 11.390625 -4.53125 11.390625 -5 L 11.390625 -7.015625 L 7.015625 -7.015625 C 6.117188 -7.015625 5.410156 -6.78125 4.890625 -6.3125 C 4.378906 -5.84375 4.125 -5.195312 4.125 -4.375 C 4.125 -3.539062 4.382812 -2.890625 4.90625 -2.421875 C 5.4375 -1.960938 6.175781 -1.734375 7.125 -1.734375 Z M 7.125 -1.734375 "/></g></g></g><g fill="#000000" fill-opacity="1"><g transform="translate(1225.07235, 625.097509)"><g><path d="M 2.5625 0 L 2.5625 -2.21875 L 7.96875 -2.21875 L 7.96875 -12.640625 L 3.234375 -12.640625 L 3.234375 -14.84375 L 10.390625 -14.84375 L 10.390625 -2.21875 L 14.84375 -2.21875 L 14.84375 0 Z M 8.5 -20.65625 L 9.046875 -20.65625 C 9.566406 -20.65625 9.988281 -20.5 10.3125 -20.1875 C 10.632812 -19.882812 10.796875 -19.492188 10.796875 -19.015625 C 10.796875 -18.523438 10.632812 -18.132812 10.3125 -17.84375 C 9.988281 -17.5625 9.566406 -17.421875 9.046875 -17.421875 L 8.5 -17.421875 C 7.976562 -17.421875 7.554688 -17.554688 7.234375 -17.828125 C 6.910156 -18.109375 6.75 -18.503906 6.75 -19.015625 C 6.75 -19.492188 6.910156 -19.882812 7.234375 -20.1875 C 7.554688 -20.5 7.976562 -20.65625 8.5 -20.65625 Z M 8.5 -20.65625 "/></g></g></g><g fill="#000000" fill-opacity="1"><g transform="translate(1241.26527, 625.097509)"><g><path d="M 2.375 0 L 2.375 -14.84375 L 4.671875 -14.84375 L 4.671875 -12.28125 L 4.890625 -12.28125 C 5.117188 -13.1875 5.585938 -13.882812 6.296875 -14.375 C 7.015625 -14.875 7.90625 -15.125 8.96875 -15.125 C 9.707031 -15.125 10.375 -14.992188 10.96875 -14.734375 C 11.570312 -14.484375 12.085938 -14.128906 12.515625 -13.671875 C 12.941406 -13.210938 13.269531 -12.660156 13.5 -12.015625 C 13.726562 -11.378906 13.84375 -10.664062 13.84375 -9.875 L 13.84375 0 L 11.421875 0 L 11.421875 -9.484375 C 11.421875 -10.609375 11.128906 -11.484375 10.546875 -12.109375 C 9.972656 -12.742188 9.175781 -13.0625 8.15625 -13.0625 C 7.125 -13.0625 6.304688 -12.722656 5.703125 -12.046875 C 5.109375 -11.378906 4.8125 -10.46875 4.8125 -9.3125 L 4.8125 0 Z M 2.375 0 "/></g></g></g></svg>